<svg width="46" height="46" viewBox="0 0 46 46" fill="none" xmlns="http://www.w3.org/2000/svg">
<circle cx="23" cy="23" r="23" fill="#273259"/>
<path d="M23 13C17.49 13 13 17.49 13 23C13 28.51 17.49 33 23 33C28.51 33 33 28.51 33 23C33 17.49 28.51 13 23 13ZM22.25 19C22.25 18.59 22.59 18.25 23 18.25C23.41 18.25 23.75 18.59 23.75 19V24C23.75 24.41 23.41 24.75 23 24.75C22.59 24.75 22.25 24.41 22.25 24V19ZM23.92 27.38C23.87 27.51 23.8 27.61 23.71 27.71C23.61 27.8 23.5 27.87 23.38 27.92C23.26 27.97 23.13 28 23 28C22.87 28 22.74 27.97 22.62 27.92C22.5 27.87 22.39 27.8 22.29 27.71C22.2 27.61 22.13 27.51 22.08 27.38C22.03 27.26 22 27.13 22 27C22 26.87 22.03 26.74 22.08 26.62C22.13 26.5 22.2 26.39 22.29 26.29C22.39 26.2 22.5 26.13 22.62 26.08C22.86 25.98 23.14 25.98 23.38 26.08C23.5 26.13 23.61 26.2 23.71 26.29C23.8 26.39 23.87 26.5 23.92 26.62C23.97 26.74 24 26.87 24 27C24 27.13 23.97 27.26 23.92 27.38Z" fill="white"/>
</svg>
