<svg width="46" height="46" viewBox="0 0 46 46" fill="none" xmlns="http://www.w3.org/2000/svg">
<circle cx="23" cy="23" r="23" fill="#273259"/>
<path d="M31.6211 19.45C30.5711 14.83 26.5411 12.75 23.0011 12.75C23.0011 12.75 23.0011 12.75 22.9911 12.75C19.4611 12.75 15.4211 14.82 14.3711 19.44C13.2011 24.6 16.3611 28.97 19.2211 31.72C20.2811 32.74 21.6411 33.25 23.0011 33.25C24.3611 33.25 25.7211 32.74 26.7711 31.72C29.6311 28.97 32.7911 24.61 31.6211 19.45ZM23.0011 24.46C21.2611 24.46 19.8511 23.05 19.8511 21.31C19.8511 19.57 21.2611 18.16 23.0011 18.16C24.7411 18.16 26.1511 19.57 26.1511 21.31C26.1511 23.05 24.7411 24.46 23.0011 24.46Z" fill="white"/>
</svg>
