<svg width="36" height="36" viewBox="0 0 36 36" fill="none" xmlns="http://www.w3.org/2000/svg">
<rect width="36" height="36" rx="6" fill="#D0FFEF"/>
<path d="M16.1667 14.5443C15.4333 13.8687 14.1436 13.3985 12.9583 13.3692M12.9583 13.3692C11.5476 13.3343 10.2844 13.9219 10.2844 15.5316C10.2844 18.4924 16.1667 17.012 16.1667 19.9737C16.1667 21.6622 14.601 22.3882 12.9583 22.3342M12.9583 13.3692V11.5835M9.75 20.961C10.4393 21.8089 11.7208 22.2929 12.9583 22.3342M12.9583 22.3342V24.4168" stroke="#04B779" stroke-width="1.5" stroke-linecap="round" stroke-linejoin="round"/>
<path d="M26.2539 18.0003L18.9206 18.0003M18.9206 18.0003L22.4406 21.667M18.9206 18.0003L22.4406 14.3337M26.2526 18.0003L18.9193 18.0003M18.9193 18.0003L22.4393 21.667M18.9193 18.0003L22.4393 14.3337" stroke="#04B779" stroke-width="1.5" stroke-linecap="round" stroke-linejoin="round"/>
</svg>
