<svg width="37" height="36" viewBox="0 0 37 36" fill="none" xmlns="http://www.w3.org/2000/svg">
<rect x="0.00390625" width="36" height="36" rx="6" fill="#FFEFDC"/>
<path d="M15.7109 19.6044C15.7109 20.4935 16.3984 21.2085 17.2418 21.2085H18.9651C19.6984 21.2085 20.2943 20.5852 20.2943 19.806C20.2943 18.9719 19.9276 18.6694 19.3868 18.4769L16.6276 17.5144C16.0868 17.3219 15.7201 17.0285 15.7201 16.1852C15.7201 15.4152 16.3159 14.7827 17.0493 14.7827H18.7726C19.6159 14.7827 20.3034 15.4977 20.3034 16.3869" stroke="#FFA330" stroke-width="1.5" stroke-linecap="round" stroke-linejoin="round"/>
<path d="M18.0039 13.875V22.125" stroke="#FFA330" stroke-width="1.5" stroke-linecap="round" stroke-linejoin="round"/>
<path d="M27.1693 17.9997C27.1693 23.0597 23.0626 27.1663 18.0026 27.1663C12.9426 27.1663 8.83594 23.0597 8.83594 17.9997C8.83594 12.9397 12.9426 8.83301 18.0026 8.83301" stroke="#FFA330" stroke-width="1.5" stroke-linecap="round" stroke-linejoin="round"/>
<path d="M22.5859 9.74927V13.4159H26.2526M27.1706 8.8335L22.5872 13.4168" stroke="#FFA330" stroke-width="1.5" stroke-linecap="round" stroke-linejoin="round"/>
</svg>
