<svg width="61" height="60" viewBox="0 0 61 60" fill="none" xmlns="http://www.w3.org/2000/svg">
<rect x="0.0507812" width="60.1025" height="60" rx="10" fill="#8A43FD"/>
<path d="M30.0998 45C38.3985 45 45.1255 38.2845 45.1255 30C45.1255 21.7155 38.3985 15 30.0998 15C21.8012 15 15.0742 21.7155 15.0742 30C15.0742 38.2845 21.8012 45 30.0998 45Z" stroke="white" stroke-width="2.5" stroke-linecap="round" stroke-linejoin="round"/>
<path d="M34.6091 24.75C33.5799 23.7225 31.7678 23.0085 30.1014 22.9635M30.1014 22.9635C28.1181 22.9095 26.345 23.805 26.345 26.25C26.345 30.75 34.6091 28.5 34.6091 33C34.6091 35.5665 32.4094 36.669 30.1014 36.5865M30.1014 22.9635V20.25M25.5938 34.5C26.5614 35.79 28.363 36.525 30.1014 36.5865M30.1014 36.5865V39.75" stroke="white" stroke-width="2.5" stroke-linecap="round" stroke-linejoin="round"/>
</svg>
