<svg width="46" height="46" viewBox="0 0 46 46" fill="none" xmlns="http://www.w3.org/2000/svg">
<circle cx="23" cy="23" r="23" fill="#273259"/>
<path d="M23 13C20.38 13 18.25 15.13 18.25 17.75C18.25 20.32 20.26 22.4 22.88 22.49C22.96 22.48 23.04 22.48 23.1 22.49C23.12 22.49 23.13 22.49 23.15 22.49C23.16 22.49 23.16 22.49 23.17 22.49C25.73 22.4 27.74 20.32 27.75 17.75C27.75 15.13 25.62 13 23 13Z" fill="white"/>
<path d="M28.0809 25.1499C25.2909 23.2899 20.7409 23.2899 17.9309 25.1499C16.6609 25.9999 15.9609 27.1499 15.9609 28.3799C15.9609 29.6099 16.6609 30.7499 17.9209 31.5899C19.3209 32.5299 21.1609 32.9999 23.0009 32.9999C24.8409 32.9999 26.6809 32.5299 28.0809 31.5899C29.3409 30.7399 30.0409 29.5999 30.0409 28.3599C30.0309 27.1299 29.3409 25.9899 28.0809 25.1499Z" fill="white"/>
</svg>
