<svg width="22" height="23" viewBox="0 0 22 23" fill="none" xmlns="http://www.w3.org/2000/svg">
<path d="M10.5045 12.7855C11.9271 12.7855 13.0804 11.6322 13.0804 10.2096C13.0804 8.78703 11.9271 7.63379 10.5045 7.63379C9.08195 7.63379 7.92871 8.78703 7.92871 10.2096C7.92871 11.6322 9.08195 12.7855 10.5045 12.7855Z" stroke="#A560FD" stroke-width="1.5" stroke-linecap="round" stroke-linejoin="round"/>
<path d="M15.263 18.7162C15.263 16.5803 13.1364 14.8386 10.5055 14.8386C7.87471 14.8386 5.74805 16.5712 5.74805 18.7162" stroke="#A560FD" stroke-width="1.5" stroke-linecap="round" stroke-linejoin="round"/>
<path d="M19.2507 11.658C19.2507 16.4705 15.3548 20.3664 10.5423 20.3664C5.72982 20.3664 1.83398 16.4705 1.83398 11.658C1.83398 6.84554 5.72982 2.94971 10.5423 2.94971C11.7432 2.94971 12.889 3.18803 13.934 3.62803C13.8148 3.9947 13.7507 4.37971 13.7507 4.78304C13.7507 5.47054 13.9432 6.12137 14.2823 6.67137C14.4657 6.98304 14.704 7.26718 14.979 7.50551C15.6207 8.09218 16.4732 8.44971 17.4173 8.44971C17.8207 8.44971 18.2057 8.38552 18.5632 8.25719C19.0032 9.30219 19.2507 10.4572 19.2507 11.658Z" stroke="#A560FD" stroke-width="1.5" stroke-linecap="round" stroke-linejoin="round"/>
<path d="M21.0833 4.78312C21.0833 5.07645 21.0467 5.36061 20.9733 5.63561C20.8908 6.00228 20.7442 6.35979 20.5517 6.67145C20.1117 7.41395 19.4058 7.99143 18.5625 8.25727C18.205 8.3856 17.82 8.44979 17.4167 8.44979C16.4725 8.44979 15.62 8.09226 14.9783 7.50559C14.7033 7.26726 14.465 6.98312 14.2817 6.67145C13.9425 6.12145 13.75 5.47062 13.75 4.78312C13.75 4.37979 13.8142 3.99478 13.9333 3.62811C14.1075 3.09645 14.4008 2.61981 14.7858 2.22564C15.455 1.53814 16.39 1.11646 17.4167 1.11646C18.4983 1.11646 19.4792 1.58397 20.1392 2.33564C20.7258 2.98647 21.0833 3.84812 21.0833 4.78312Z" stroke="#A560FD" stroke-width="1.5" stroke-miterlimit="10" stroke-linecap="round" stroke-linejoin="round"/>
<path d="M18.7824 4.7644H16.0508" stroke="#A560FD" stroke-miterlimit="10" stroke-linecap="round" stroke-linejoin="round"/>
<path d="M17.416 3.42651V6.16734" stroke="#A560FD" stroke-miterlimit="10" stroke-linecap="round" stroke-linejoin="round"/>
</svg>
