<svg width="36" height="36" viewBox="0 0 36 36" fill="none" xmlns="http://www.w3.org/2000/svg">
<rect width="36" height="36" rx="6" fill="#FFEFDC"/>
<path d="M13.1679 25.058C13.9195 24.2513 15.0654 24.3155 15.7254 25.1955L16.6512 26.433C17.3937 27.4138 18.5945 27.4138 19.337 26.433L20.2629 25.1955C20.9229 24.3155 22.0687 24.2513 22.8204 25.058C24.452 26.7997 25.7812 26.2222 25.7812 23.7838V13.453C25.7904 9.75884 24.9287 8.83301 21.4637 8.83301H14.5337C11.0687 8.83301 10.207 9.75884 10.207 13.453V23.7747C10.207 26.2222 11.5454 26.7905 13.1679 25.058Z" stroke="#FFA330" stroke-width="1.5" stroke-linecap="round" stroke-linejoin="round"/>
<path d="M14.332 13.417H21.6654" stroke="#FFA330" stroke-width="1.5" stroke-linecap="round" stroke-linejoin="round"/>
<path d="M15.25 17.0835H20.75" stroke="#FFA330" stroke-width="1.5" stroke-linecap="round" stroke-linejoin="round"/>
</svg>
