<svg width="36" height="36" viewBox="0 0 36 36" fill="none" xmlns="http://www.w3.org/2000/svg">
<rect width="36" height="36" rx="6" fill="#FFEFDC"/>
<path d="M14.334 18.1833H20.7507" stroke="#FFA330" stroke-width="1.5" stroke-miterlimit="10" stroke-linecap="round" stroke-linejoin="round"/>
<path d="M14.334 21.8501H18.349" stroke="#FFA330" stroke-width="1.5" stroke-miterlimit="10" stroke-linecap="round" stroke-linejoin="round"/>
<path d="M16.1673 12.4999H19.834C21.6673 12.4999 21.6673 11.5833 21.6673 10.6666C21.6673 8.83325 20.7507 8.83325 19.834 8.83325H16.1673C15.2507 8.83325 14.334 8.83325 14.334 10.6666C14.334 12.4999 15.2507 12.4999 16.1673 12.4999Z" stroke="#FFA330" stroke-width="1.5" stroke-miterlimit="10" stroke-linecap="round" stroke-linejoin="round"/>
<path d="M21.6667 10.6851C24.7192 10.8501 26.25 11.9776 26.25 16.1667V21.6667C26.25 25.3334 25.3333 27.1667 20.75 27.1667H15.25C10.6667 27.1667 9.75 25.3334 9.75 21.6667V16.1667C9.75 11.9867 11.2808 10.8501 14.3333 10.6851" stroke="#FFA330" stroke-width="1.5" stroke-miterlimit="10" stroke-linecap="round" stroke-linejoin="round"/>
</svg>
