<svg width="80" height="80" viewBox="0 0 80 80" fill="none" xmlns="http://www.w3.org/2000/svg">
<circle cx="40" cy="40" r="40" fill="#273259"/>
<g clip-path="url(#clip0_809_2867)">
<path d="M40.982 43.778C40.4211 43.778 39.9664 44.2327 39.9664 44.7937C39.9659 47.4226 37.8345 49.5534 35.2055 49.553C32.5765 49.5526 30.4456 47.4211 30.4461 44.7921C30.4466 42.1634 32.5776 40.0327 35.2062 40.0327C35.7672 40.0327 36.2219 39.578 36.2219 39.0171C36.2219 38.4562 35.7672 38.0015 35.2062 38.0015C31.4561 38.004 28.4166 41.0435 28.4141 44.7937C28.4141 48.5447 31.4548 51.5855 35.2059 51.5855C38.9569 51.5855 41.9977 48.5447 41.9977 44.7937C41.9977 44.2327 41.543 43.778 40.982 43.778Z" fill="white"/>
<path d="M49.0516 47.1296C48.9547 46.5771 48.4283 46.2077 47.8758 46.3046L45.75 46.6772C45.3612 46.7454 45.047 47.0327 44.9445 47.414C44.7179 48.2552 44.3825 49.0633 43.9469 49.8179C43.7483 50.1607 43.7672 50.5877 43.9953 50.9116L45.2359 52.6796C45.4095 52.9258 45.3805 53.2613 45.1672 53.4741L43.8922 54.7491C43.6797 54.9622 43.3447 54.9916 43.0984 54.8187L41.3305 53.578C41.0066 53.3499 40.5795 53.331 40.2367 53.5296C39.4823 53.9653 38.6741 54.3007 37.8328 54.5272C37.4516 54.6297 37.1642 54.9439 37.0961 55.3327L36.7188 57.4562C36.6671 57.7526 36.4095 57.969 36.1086 57.9687H34.3047C34.0038 57.969 33.7463 57.7526 33.6945 57.4562L33.3219 55.3312C33.2538 54.9423 32.9664 54.6282 32.5852 54.5257C31.7437 54.299 30.9353 53.9637 30.1805 53.528C29.8377 53.3294 29.4106 53.3483 29.0867 53.5765L27.3219 54.8163C27.0756 54.9899 26.7402 54.9608 26.5273 54.7476L25.2523 53.4726C25.0395 53.26 25.0102 52.9252 25.1828 52.6788L26.4234 50.9108C26.6515 50.5869 26.6705 50.1599 26.4719 49.8171C26.036 49.0626 25.7006 48.2545 25.4742 47.4132C25.3717 47.0319 25.0576 46.7446 24.6688 46.6765L22.5438 46.3038C22.2478 46.2522 22.0317 45.9956 22.0313 45.6952V43.8913C22.0309 43.5904 22.2473 43.3329 22.5438 43.2812L24.6688 42.9085C25.0576 42.8404 25.3717 42.553 25.4742 42.1718C25.7005 41.3296 26.0359 40.5207 26.4719 39.7655C26.6705 39.4227 26.6515 38.9957 26.4234 38.6718L25.1836 36.9093C25.01 36.663 25.0391 36.3276 25.2523 36.1147L26.5281 34.839C26.7408 34.6261 27.0758 34.5971 27.3219 34.7702L29.0898 36.0108C29.4138 36.239 29.8408 36.2579 30.1836 36.0593C30.9384 35.6236 31.7467 35.2882 32.5883 35.0616C32.9695 34.9591 33.2569 34.645 33.325 34.2562L33.6977 32.1312C33.7945 31.5787 33.4252 31.0522 32.8727 30.9554C32.3202 30.8585 31.7938 31.2279 31.6969 31.7804L31.4328 33.2882C30.8536 33.4795 30.2898 33.7146 29.7461 33.9913L28.4922 33.1116C27.4388 32.3704 26.0046 32.4954 25.0953 33.4077L23.8156 34.6788C22.9041 35.5886 22.7795 37.0222 23.5203 38.0757L24.4 39.3296C24.1232 39.8734 23.8881 40.4376 23.6969 41.0171L22.1891 41.2812C20.922 41.5037 19.9984 42.6049 20 43.8913V45.6952C19.9984 46.9829 20.9237 48.085 22.1922 48.3062L23.7 48.571C23.8913 49.1502 24.1263 49.7141 24.4031 50.2577L23.5203 51.5116C22.7798 52.5652 22.9047 53.9989 23.8164 54.9085L25.0922 56.1835C26.0018 57.0953 27.4357 57.2199 28.4891 56.4788L29.7391 55.5991C30.2827 55.8758 30.8466 56.1108 31.4258 56.3022L31.6898 57.8101C31.9123 59.0791 33.0163 60.0037 34.3047 59.9999H36.1086C37.3966 60.0015 38.4987 59.0758 38.7195 57.8069L38.9844 56.2991C39.5636 56.1078 40.1275 55.8727 40.6711 55.596L41.9258 56.4757C42.9793 57.2166 44.4132 57.0916 45.3227 56.1796L46.5984 54.9038C47.5102 53.9942 47.6351 52.5605 46.8945 51.5069L46.0156 50.2569C46.2923 49.7133 46.5273 49.1494 46.7188 48.5702L48.2266 48.3054C48.7791 48.2085 49.1484 47.6821 49.0516 47.1296Z" fill="white"/>
<path d="M58.0945 29.2188L57.032 29.0328C56.8993 28.6497 56.7427 28.2752 56.5633 27.9117L57.1883 27.0313C57.8322 26.1156 57.7237 24.8695 56.9313 24.0789L55.925 23.0703C55.1341 22.2763 53.886 22.1673 52.9695 22.8125L52.0859 23.432C51.7224 23.2525 51.348 23.0959 50.9648 22.9633L50.782 21.9055C50.5897 20.8025 49.6313 19.9982 48.5117 20H47.0906C45.9711 19.9986 45.0131 20.8033 44.8211 21.9063L44.6344 22.9688C44.2513 23.1014 43.8768 23.258 43.5133 23.4375L42.6297 22.8125C41.7141 22.1686 40.4679 22.2771 39.6773 23.0695L38.6727 24.0758C37.8786 24.8667 37.7697 26.1148 38.4148 27.0313L39.0344 27.9148C38.8548 28.2784 38.6983 28.6528 38.5656 29.0359L37.507 29.2188C36.4044 29.4111 35.6002 30.369 35.6016 31.4883V32.9094C35.5994 34.0292 36.4038 34.988 37.507 35.1805L38.5688 35.3664C38.7014 35.7495 38.858 36.124 39.0375 36.4875L38.4172 37.3711C37.7732 38.2864 37.881 39.5323 38.6727 40.3234L39.6773 41.3281C40.4681 42.121 41.7147 42.2295 42.6305 41.5852L43.5164 40.9656C43.88 41.1451 44.2544 41.3016 44.6375 41.4344L44.8242 42.4969C45.0166 43.5995 45.9745 44.4038 47.0938 44.4023H48.5149C49.6345 44.4023 50.5916 43.5963 50.782 42.493L50.968 41.4313C51.3511 41.2986 51.7256 41.142 52.0891 40.9625L52.9695 41.5859C53.8859 42.2314 55.1342 42.1225 55.925 41.3281L56.9305 40.3227C57.7224 39.5323 57.8312 38.2868 57.1883 37.3711L56.5672 36.4844C56.7466 36.1208 56.9032 35.7464 57.0359 35.3633L58.0984 35.1766C59.1987 34.9831 60.0009 34.0273 60.0008 32.9102V31.4891C60.0026 30.3692 59.1978 29.4108 58.0945 29.2188ZM57.9695 32.9125C57.9696 33.0451 57.8743 33.1584 57.7438 33.1813L56.0688 33.475C55.6799 33.5431 55.3658 33.8305 55.2633 34.2117C55.0895 34.8567 54.8324 35.4763 54.4984 36.0547C54.2999 36.3975 54.3188 36.8245 54.5469 37.1484L55.5242 38.5422C55.6006 38.6507 55.5877 38.7985 55.4938 38.8922L54.4891 39.8969C54.3943 39.9879 54.2482 39.9984 54.1414 39.9219L52.7453 38.9453C52.4214 38.7172 51.9944 38.6983 51.6516 38.8969C51.0731 39.2309 50.4536 39.488 49.8086 39.6617C49.4281 39.7655 49.1421 40.0802 49.075 40.4688L48.7813 42.1438C48.7584 42.2743 48.6451 42.3696 48.5125 42.3695H47.0906C46.9581 42.3696 46.8447 42.2743 46.8219 42.1438L46.5274 40.4688C46.4592 40.0799 46.1719 39.7658 45.7906 39.6633C45.1454 39.4895 44.5256 39.2324 43.9469 38.8984C43.6041 38.6998 43.177 38.7188 42.8531 38.9469L41.4633 39.9219C41.3548 39.9983 41.207 39.9854 41.1133 39.8914L40.1086 38.8867C40.0146 38.793 40.0017 38.6452 40.0781 38.5367L41.0555 37.143C41.2836 36.8191 41.3025 36.392 41.1039 36.0492C40.7698 35.4709 40.5127 34.8513 40.3391 34.2063C40.2351 33.8261 39.9205 33.5404 39.532 33.4734L37.857 33.1797C37.7265 33.1569 37.6312 33.0435 37.6313 32.9109L37.632 31.4891C37.632 31.3565 37.7273 31.2431 37.8578 31.2203L39.532 30.9258C39.9209 30.8577 40.235 30.5703 40.3375 30.1891C40.5112 29.5441 40.7683 28.9245 41.1023 28.3461C41.3009 28.0033 41.282 27.5763 41.0539 27.2523L40.0789 25.8594C40.0025 25.7509 40.0154 25.603 40.1094 25.5094L41.1148 24.5039C41.2085 24.4099 41.3563 24.397 41.4648 24.4734L42.8578 25.4508C43.1817 25.6788 43.6088 25.6978 43.9516 25.4992C44.53 25.1652 45.1495 24.908 45.7945 24.7344C46.1758 24.6319 46.4631 24.3177 46.5313 23.9289L46.825 22.2539C46.8489 22.1257 46.9602 22.0324 47.0906 22.0313H48.5117C48.6443 22.0312 48.7577 22.1265 48.7805 22.257L49.0742 23.932C49.1424 24.3209 49.4297 24.635 49.8109 24.7375C50.4559 24.9111 51.0756 25.1682 51.6539 25.5023C51.9967 25.7009 52.4238 25.682 52.7477 25.4539L54.1414 24.4766C54.2499 24.4002 54.3977 24.413 54.4914 24.507L55.4969 25.5125C55.5882 25.6066 55.5997 25.7522 55.5242 25.8594L54.5469 27.2555C54.3188 27.5794 54.2999 28.0064 54.4984 28.3492C54.8324 28.9277 55.0895 29.5472 55.2633 30.1922C55.3658 30.5734 55.6799 30.8608 56.0688 30.9289L57.7438 31.2227C57.8743 31.2455 57.9696 31.3588 57.9695 31.4914V32.9125Z" fill="white"/>
<path d="M47.8016 27.3477C45.1217 27.3477 42.9492 29.5202 42.9492 32.2C42.9523 34.8786 45.123 37.0493 47.8016 37.0523C50.4814 37.0523 52.6539 34.8798 52.6539 32.2C52.6539 29.5202 50.4814 27.3477 47.8016 27.3477ZM47.8016 35.0211C46.2435 35.0211 44.9805 33.758 44.9805 32.2C44.9801 30.6412 46.2427 29.3767 47.8016 29.375V29.3789C49.3596 29.3789 50.6227 30.642 50.6227 32.2C50.6227 33.758 49.3596 35.0211 47.8016 35.0211Z" fill="white"/>
</g>
<defs>
<clipPath id="clip0_809_2867">
<rect width="40" height="40" fill="white" transform="translate(20 20)"/>
</clipPath>
</defs>
</svg>
