<svg width="61" height="60" viewBox="0 0 61 60" fill="none" xmlns="http://www.w3.org/2000/svg">
<rect x="0.0507812" width="60.1025" height="60" rx="10" fill="#53C179"/>
<path d="M42.4155 23.2758C42.4149 23.2728 42.4149 23.2704 42.4149 23.268C42.3991 23.1886 42.3701 23.1154 42.335 23.0445C42.3271 23.0288 42.3186 23.0136 42.3095 22.9973C42.2696 22.9277 42.2229 22.8604 42.166 22.8035L34.6283 15.2658C34.5714 15.2089 34.5048 15.1629 34.4346 15.1229C34.4188 15.1132 34.4025 15.1048 34.3861 15.0969C34.3165 15.0618 34.2438 15.0333 34.1651 15.0176C34.1602 15.0163 34.1548 15.017 34.1506 15.0163C34.0973 15.0061 34.0422 15 33.9865 15H17.9083C17.4063 15 17 15.4063 17 15.9083V44.0917C17 44.5931 17.4063 45 17.9083 45H41.5241C42.0255 45 42.4325 44.5931 42.4325 44.0917V23.4466C42.4325 23.3873 42.4258 23.3303 42.4155 23.2758ZM34.8942 18.1009L39.3315 22.5383H34.8942V18.1009ZM40.6158 43.1828H18.8166V16.8166H33.0775V23.4466C33.0775 23.948 33.4845 24.3549 33.9858 24.3549H40.6158V43.1828ZM22.7296 24.3549H24.7732V26.3986C24.7732 26.9 25.1796 27.3069 25.6816 27.3069C26.1835 27.3069 26.5899 26.9 26.5899 26.3986V24.3549H28.6335C29.1355 24.3549 29.5418 23.948 29.5418 23.4466C29.5418 22.9446 29.1355 22.5383 28.6335 22.5383H26.5899V20.4946C26.5899 19.9926 26.1835 19.5863 25.6816 19.5863C25.1796 19.5863 24.7732 19.9926 24.7732 20.4946V22.5383H22.7296C22.2276 22.5383 21.8213 22.9446 21.8213 23.4466C21.8213 23.948 22.2282 24.3549 22.7296 24.3549ZM29.2245 39.3879H22.1398C21.6378 39.3879 21.2315 39.7948 21.2315 40.2962C21.2315 40.7976 21.6378 41.2045 22.1398 41.2045H29.2245C29.7265 41.2045 30.1328 40.7976 30.1328 40.2962C30.1328 39.7948 29.7259 39.3879 29.2245 39.3879ZM29.2245 32.5581H22.1398C21.6378 32.5581 21.2315 32.965 21.2315 33.4664C21.2315 33.9678 21.6378 34.3747 22.1398 34.3747H29.2245C29.7265 34.3747 30.1328 33.9678 30.1328 33.4664C30.1328 32.965 29.7259 32.5581 29.2245 32.5581ZM29.2245 35.9733H22.1398C21.6378 35.9733 21.2315 36.3802 21.2315 36.8816C21.2315 37.383 21.6378 37.7899 22.1398 37.7899H29.2245C29.7265 37.7899 30.1328 37.383 30.1328 36.8816C30.1328 36.3802 29.7259 35.9733 29.2245 35.9733ZM32.0045 33.0607C32.0045 34.9863 33.8871 35.673 34.7918 36.003H34.793C36.124 36.488 36.3844 36.8229 36.3844 37.2376C36.3844 37.6979 35.7976 38.0866 35.1037 38.0866C34.2862 38.0866 33.8617 37.4998 33.7933 37.2316C33.6698 36.7466 33.1769 36.4499 32.6894 36.5764C32.2032 36.6993 31.9095 37.1941 32.0336 37.6797C32.2534 38.5432 33.0533 39.4394 34.1954 39.7658V40.2956C34.1954 40.797 34.6023 41.2039 35.1037 41.2039C35.605 41.2039 36.012 40.797 36.012 40.2956V39.7779C37.2884 39.4491 38.201 38.4566 38.201 37.2376C38.201 35.3145 36.325 34.6284 35.4185 34.2984L35.4149 34.296C34.0821 33.8097 33.8211 33.4755 33.8211 33.0601C33.8211 32.5999 34.4085 32.2123 35.1031 32.2123C35.9205 32.2123 36.3444 32.7979 36.4116 33.0649C36.5358 33.5512 37.0287 33.8454 37.5155 33.7213C38.0018 33.5984 38.2954 33.1037 38.1725 32.618C37.9539 31.7545 37.154 30.8596 36.0114 30.5332V30.0518C36.0114 29.5498 35.6044 29.1435 35.1031 29.1435C34.6017 29.1435 34.1948 29.5498 34.1948 30.0518V30.5211C32.9177 30.8487 32.0045 31.8411 32.0045 33.0607ZM29.2245 29.1435H22.1398C21.6378 29.1435 21.2315 29.5498 21.2315 30.0518C21.2315 30.5532 21.6378 30.9601 22.1398 30.9601H29.2245C29.7265 30.9601 30.1328 30.5532 30.1328 30.0518C30.1328 29.5498 29.7259 29.1435 29.2245 29.1435Z" fill="white"/>
</svg>
