<svg width="36" height="36" viewBox="0 0 36 36" fill="none" xmlns="http://www.w3.org/2000/svg">
<rect width="36" height="36" rx="6" fill="#FFEDED"/>
<path d="M26.25 12.4813C23.1975 12.1788 20.1267 12.0229 17.065 12.0229C15.25 12.0229 13.435 12.1146 11.62 12.2979L9.75 12.4813" stroke="#FF3F3F" stroke-width="1.5" stroke-linecap="round" stroke-linejoin="round"/>
<path d="M14.791 11.5555L14.9927 10.3547C15.1393 9.48384 15.2493 8.83301 16.7985 8.83301H19.2002C20.7493 8.83301 20.8685 9.52051 21.006 10.3638L21.2077 11.5555" stroke="#FF3F3F" stroke-width="1.5" stroke-linecap="round" stroke-linejoin="round"/>
<path d="M24.279 15.3784L23.6832 24.6093C23.5824 26.0484 23.4999 27.1668 20.9424 27.1668H15.0574C12.4999 27.1668 12.4174 26.0484 12.3165 24.6093L11.7207 15.3784" stroke="#FF3F3F" stroke-width="1.5" stroke-linecap="round" stroke-linejoin="round"/>
<path d="M16.4688 22.125H19.5212" stroke="#FF3F3F" stroke-width="1.5" stroke-linecap="round" stroke-linejoin="round"/>
<path d="M15.709 18.458H20.2923" stroke="#FF3F3F" stroke-width="1.5" stroke-linecap="round" stroke-linejoin="round"/>
</svg>
