<svg width="60" height="60" viewBox="0 0 60 60" fill="none" xmlns="http://www.w3.org/2000/svg">
<rect width="60" height="60" rx="10" fill="#F19A33"/>
<path d="M18.9345 19.872C16.3989 22.6349 14.9945 26.25 15 30C15 38.2845 21.7155 45 30 45C33.6548 45.0055 37.1849 43.6714 39.9225 41.25M43.953 35.517C44.6471 33.7606 45.0024 31.8886 45 30C45 21.7155 38.2845 15 30 15C28.1535 15 26.385 15.3345 24.75 15.945" stroke="white" stroke-width="2.5" stroke-linecap="round" stroke-linejoin="round"/>
<path d="M25.5 34.5C26.466 35.79 28.2645 36.525 30 36.5865M30 36.5865C31.671 36.6465 33.285 36.0825 34.0455 34.7895M30 36.5865V39.75M26.25 26.25C26.25 28.0215 27.528 28.7475 29.079 29.25M34.5 24.75C33.4725 23.7225 31.6635 23.0085 30 22.9635V20.25M16.5 16.5L43.5 43.5" stroke="white" stroke-width="2.5" stroke-linecap="round" stroke-linejoin="round"/>
</svg>
