<svg width="36" height="36" viewBox="0 0 36 36" fill="none" xmlns="http://www.w3.org/2000/svg">
<rect width="36" height="36" rx="6" fill="#FFE1EA"/>
<path d="M21.2821 17.9999C21.2821 19.8149 19.8154 21.2816 18.0004 21.2816C16.1854 21.2816 14.7188 19.8149 14.7188 17.9999C14.7188 16.1849 16.1854 14.7183 18.0004 14.7183C19.8154 14.7183 21.2821 16.1849 21.2821 17.9999Z" stroke="#FF2365" stroke-width="1.5" stroke-linecap="round" stroke-linejoin="round"/>
<path d="M18.0008 25.5807C21.2367 25.5807 24.2525 23.6741 26.3517 20.3741C27.1767 19.0816 27.1767 16.9091 26.3517 15.6166C24.2525 12.3166 21.2367 10.4099 18.0008 10.4099C14.765 10.4099 11.7492 12.3166 9.65 15.6166C8.825 16.9091 8.825 19.0816 9.65 20.3741C11.7492 23.6741 14.765 25.5807 18.0008 25.5807Z" stroke="#FF2365" stroke-width="1.5" stroke-linecap="round" stroke-linejoin="round"/>
</svg>
