<svg width="454" height="420" viewBox="0 0 454 420" fill="none" xmlns="http://www.w3.org/2000/svg">
<g clip-path="url(#clip0_452_975)">
<path d="M205.922 1.49268C331.582 -9.68879 331.785 61.3643 388.434 127.64C445.082 193.916 457.142 224.004 435.86 300.343C414.478 376.682 342.527 436.655 253.551 402.704C164.575 368.753 113.601 401.383 57.4595 371.193C1.31753 341.104 -19.5584 282.859 21.5854 214.245C62.7291 145.632 50.9738 15.317 205.922 1.49268Z" fill="#92E3A9"/>
<path d="M205.922 1.49268C331.582 -9.68879 331.785 61.3644 388.434 127.64C445.082 193.916 457.142 224.004 435.86 300.343C414.478 376.682 342.527 436.655 253.551 402.704C164.575 368.753 113.601 401.383 57.4595 371.193C1.31754 341.104 -19.5584 282.859 21.5854 214.245C62.7291 145.632 50.9738 15.317 205.922 1.49268Z" fill="#58A1CC"/>
<path d="M240.985 36.9684L220.312 41.3393C217.474 41.9492 214.738 40.1195 214.231 37.375L209.772 16.6385C209.164 13.7923 210.989 11.0477 213.725 10.5395L234.398 6.16855C237.235 5.55865 239.972 7.38834 240.478 10.1329L244.836 30.8694C245.545 33.614 243.721 36.3585 240.985 36.9684Z" stroke="white" stroke-miterlimit="10" stroke-linecap="round" stroke-linejoin="round"/>
<path d="M225.987 17.4517L228.723 30.0562" stroke="white" stroke-miterlimit="10" stroke-linecap="round" stroke-linejoin="round"/>
<path d="M233.587 22.4326L221.123 25.0755" stroke="white" stroke-miterlimit="10" stroke-linecap="round" stroke-linejoin="round"/>
<path d="M449.338 258.666L428.665 263.037C425.827 263.647 423.091 261.818 422.585 259.073L418.227 238.336C417.619 235.49 419.443 232.746 422.179 232.237L442.852 227.867C445.69 227.257 448.426 229.086 448.933 231.831L453.29 252.567C453.898 255.414 452.176 258.158 449.338 258.666Z" stroke="#263238" stroke-miterlimit="10" stroke-linecap="round" stroke-linejoin="round"/>
<path d="M439.305 240.064L432.313 250.839" stroke="#263238" stroke-miterlimit="10" stroke-linecap="round" stroke-linejoin="round"/>
<path d="M441.13 249.01L430.388 241.996" stroke="#263238" stroke-miterlimit="10" stroke-linecap="round" stroke-linejoin="round"/>
<path d="M162.548 393.25L141.469 392.031C138.632 391.827 136.402 389.388 136.605 386.542L137.821 365.398C138.024 362.552 140.456 360.316 143.293 360.519L164.372 361.739C167.21 361.942 169.439 364.382 169.236 367.228L168.02 388.371C167.818 391.217 165.385 393.352 162.548 393.25Z" stroke="#263238" stroke-miterlimit="10" stroke-linecap="round" stroke-linejoin="round"/>
<path d="M159.305 377.19L146.536 376.478" stroke="#263238" stroke-miterlimit="10" stroke-linecap="round" stroke-linejoin="round"/>
<path d="M27.7669 245.249L7.70175 238.54C4.96559 237.625 3.54684 234.677 4.45889 232.034L11.1473 211.908C12.0593 209.163 14.9982 207.74 17.633 208.655L37.6982 215.364C40.4343 216.279 41.8531 219.226 40.941 221.869L34.2526 241.996C33.3406 244.74 30.5031 246.164 27.7669 245.249Z" stroke="#263238" stroke-miterlimit="10" stroke-linecap="round" stroke-linejoin="round"/>
<path d="M30.7059 222.988L14.6943 231.018" stroke="#263238" stroke-miterlimit="10" stroke-linecap="round" stroke-linejoin="round"/>
<path d="M21.4841 219.633C21.9908 220.751 21.5854 222.073 20.4707 222.682C19.356 223.191 18.0386 222.784 17.4305 221.666C16.9238 220.548 17.3292 219.226 18.4439 218.616C19.5587 218.108 20.9774 218.515 21.4841 219.633Z" stroke="#263238" stroke-miterlimit="10" stroke-linecap="round" stroke-linejoin="round"/>
<path d="M27.8684 232.339C28.3751 233.457 27.9697 234.779 26.855 235.389C25.7402 235.897 24.4228 235.49 23.8148 234.372C23.3081 233.254 23.7135 231.933 24.8282 231.323C25.9429 230.815 27.2603 231.221 27.8684 232.339Z" stroke="#263238" stroke-miterlimit="10" stroke-linecap="round" stroke-linejoin="round"/>
<path d="M193.761 348.931C204.059 348.931 212.407 340.557 212.407 330.228C212.407 319.898 204.059 311.524 193.761 311.524C183.463 311.524 175.114 319.898 175.114 330.228C175.114 340.557 183.463 348.931 193.761 348.931Z" stroke="white" stroke-miterlimit="10" stroke-linecap="round" stroke-linejoin="round"/>
<path d="M193.761 345.983C202.436 345.983 209.468 338.929 209.468 330.228C209.468 321.526 202.436 314.472 193.761 314.472C185.086 314.472 178.053 321.526 178.053 330.228C178.053 338.929 185.086 345.983 193.761 345.983Z" stroke="white" stroke-miterlimit="10" stroke-linecap="round" stroke-linejoin="round"/>
<path d="M192.545 321.486V320.164H194.875V321.486C196.902 321.892 197.916 323.417 197.916 325.857V326.467H195.281V325.755C195.281 324.434 194.774 324.027 193.862 324.027C192.95 324.027 192.443 324.535 192.443 325.755C192.443 327.076 192.95 327.89 194.875 329.414C197.206 331.244 197.916 332.667 197.916 334.7C197.916 337.14 196.902 338.665 194.875 339.071V340.393H192.545V339.071C190.518 338.665 189.504 337.14 189.504 334.7V333.48H192.139V334.904C192.139 336.225 192.747 336.632 193.558 336.632C194.47 336.632 194.977 336.123 194.977 334.904C194.977 333.582 194.47 332.667 192.545 331.244C190.214 329.414 189.504 327.991 189.504 325.958C189.606 323.519 190.619 321.892 192.545 321.486Z" stroke="white" stroke-miterlimit="10" stroke-linecap="round" stroke-linejoin="round"/>
<path d="M298.544 345.984C304.1 337.286 301.575 325.717 292.904 320.145C284.233 314.572 272.7 317.105 267.144 325.802C261.588 334.5 264.113 346.068 272.784 351.641C281.455 357.214 292.988 354.681 298.544 345.984Z" stroke="white" stroke-miterlimit="10" stroke-linecap="round" stroke-linejoin="round"/>
<path d="M294.391 325.145C300.268 331.549 299.964 341.511 293.58 347.407C287.195 353.302 277.264 352.997 271.386 346.593C265.509 340.19 265.813 330.228 272.197 324.332C278.48 318.436 288.411 318.843 294.391 325.145Z" stroke="white" stroke-miterlimit="10" stroke-linecap="round" stroke-linejoin="round"/>
<path d="M276.048 330.228L275.136 329.212L276.859 327.687L277.771 328.703C279.494 327.687 281.318 328.093 282.939 329.821L283.345 330.228L281.419 332.058L280.913 331.549C280.001 330.635 279.392 330.635 278.683 331.245C278.075 331.854 277.974 332.566 278.886 333.481C279.798 334.396 280.71 334.701 283.142 334.497C286.081 334.294 287.601 334.802 289.02 336.225C290.641 338.055 290.945 339.885 289.729 341.511L290.641 342.426L288.918 343.951L288.006 343.036C286.284 344.154 284.459 343.646 282.838 341.918L282.027 341.003L283.953 339.173L284.865 340.19C285.777 341.105 286.486 341.105 287.094 340.495C287.702 339.885 287.804 339.173 286.993 338.258C286.081 337.343 285.169 337.039 282.737 337.242C279.798 337.445 278.278 336.937 276.859 335.514C275.238 333.684 274.934 331.956 276.048 330.228Z" stroke="white" stroke-miterlimit="10" stroke-linecap="round" stroke-linejoin="round"/>
<path opacity="0.2" d="M275.136 254.499C275.136 254.499 275.035 293.329 275.136 295.667C275.238 297.903 278.176 311.626 278.176 311.626L268.752 329.008L276.859 335.514L292.668 319.961C292.668 319.961 306.045 328.296 308.578 340.189C311.01 352.082 325.603 360.723 340.804 393.657C356.005 426.592 373.233 319.961 373.233 319.961L326.515 260.903L275.136 254.499Z" fill="black" fill-opacity="0.7"/>
<path d="M418.025 45.6088L403.736 185.784L394.919 271.983L271.893 259.378L247.876 256.938L232.574 255.312L246.153 122.253L255.679 28.9382L418.025 45.6088Z" fill="white"/>
<mask id="mask0_452_975" style="mask-type:luminance" maskUnits="userSpaceOnUse" x="232" y="28" width="187" height="244">
<path d="M418.025 45.6088L403.736 185.784L394.919 271.983L271.893 259.378L247.876 256.938L232.574 255.312L246.153 122.253L255.679 28.9382L418.025 45.6088Z" fill="white"/>
</mask>
<g mask="url(#mask0_452_975)">
<path d="M370.902 50.8945L300.775 43.6774C299.458 43.5757 298.242 44.4906 298.14 45.812C298.039 47.1335 298.951 48.3533 300.269 48.4549L370.395 55.672C371.713 55.7737 372.929 54.8588 373.03 53.5374C373.132 52.216 372.219 50.9962 370.902 50.8945Z" fill="#273259"/>
</g>
<mask id="mask1_452_975" style="mask-type:luminance" maskUnits="userSpaceOnUse" x="232" y="28" width="187" height="244">
<path d="M418.025 45.6088L403.736 185.784L394.919 271.983L271.893 259.378L247.876 256.938L232.574 255.312L246.153 122.253L255.679 28.9382L418.025 45.6088Z" fill="white"/>
</mask>
<g mask="url(#mask1_452_975)">
<path d="M352.357 58.9249L317.293 55.3672C316.685 55.2656 316.077 55.7738 315.976 56.4853C315.874 57.0952 316.381 57.7051 317.091 57.8068L352.154 61.3645C352.762 61.4662 353.37 60.9579 353.471 60.2464C353.471 59.5348 353.066 59.0266 352.357 58.9249Z" fill="#273259"/>
</g>
<mask id="mask2_452_975" style="mask-type:luminance" maskUnits="userSpaceOnUse" x="232" y="28" width="187" height="244">
<path d="M418.025 45.6088L403.736 185.784L394.919 271.983L271.893 259.378L247.876 256.938L232.574 255.312L246.153 122.253L255.679 28.9382L418.025 45.6088Z" fill="white"/>
</mask>
<g mask="url(#mask2_452_975)">
<path d="M390.967 162.303L277.264 150.613C276.656 150.511 276.048 151.019 275.947 151.731C275.846 152.341 276.352 152.951 277.062 153.052L390.764 164.742C391.372 164.844 391.98 164.336 392.082 163.624C392.183 162.912 391.575 162.404 390.967 162.303Z" fill="#273259"/>
<path d="M390.055 170.943L257.807 157.322C257.199 157.22 256.591 157.728 256.49 158.44C256.389 159.05 256.895 159.66 257.605 159.761L389.852 173.382C390.461 173.484 391.069 172.976 391.17 172.264C391.17 171.553 390.765 171.044 390.055 170.943Z" fill="#273259"/>
<path d="M352.154 175.72L256.895 165.962C256.287 165.86 255.679 166.369 255.578 167.08C255.477 167.69 255.983 168.3 256.693 168.402L351.951 178.16C352.56 178.262 353.168 177.753 353.269 177.042C353.37 176.33 352.762 175.822 352.154 175.72Z" fill="#273259"/>
</g>
<mask id="mask3_452_975" style="mask-type:luminance" maskUnits="userSpaceOnUse" x="142" y="87" width="257" height="207">
<path d="M175.927 87.5126L313.552 116.113L398.18 133.73L373.201 255.123L368.345 278.824L365.18 293.917L234.542 266.752L142.926 247.699L175.927 87.5126Z" fill="white"/>
</mask>
<g mask="url(#mask3_452_975)">
<path d="M255.373 175.157L251.512 213.048L384.898 226.782L388.759 188.891L255.373 175.157Z" fill="#DDDDE1" stroke="#273259" stroke-miterlimit="10"/>
</g>
<mask id="mask4_452_975" style="mask-type:luminance" maskUnits="userSpaceOnUse" x="232" y="28" width="187" height="244">
<path d="M418.025 45.6088L403.736 185.784L394.919 271.983L271.893 259.378L247.876 256.938L232.574 255.312L246.153 122.253L255.679 28.9382L418.025 45.6088Z" fill="white"/>
</mask>
<g mask="url(#mask4_452_975)">
<path d="M316.55 131.423C329.149 120.894 330.853 102.114 320.356 89.4762C309.859 76.8386 291.137 75.1291 278.538 85.658C265.939 96.1868 264.234 114.967 274.731 127.605C285.228 140.242 303.951 141.952 316.55 131.423Z" fill="#58A1CC"/>
<mask id="mask5_452_975" style="mask-type:luminance" maskUnits="userSpaceOnUse" x="267" y="78" width="61" height="61">
<path d="M326.756 113.912C329.721 97.729 319.052 82.206 302.927 79.2399C286.802 76.2739 271.326 86.988 268.361 103.171C265.397 119.353 276.065 134.876 292.191 137.842C308.316 140.808 323.792 130.094 326.756 113.912Z" fill="white"/>
</mask>
<g mask="url(#mask5_452_975)">
<path opacity="0.5" d="M316.544 131.417C329.147 120.885 330.856 102.105 320.362 89.4703C309.869 76.8358 291.146 75.1315 278.544 85.6636C265.941 96.1957 264.232 114.976 274.725 127.61C285.219 140.245 303.942 141.949 316.544 131.417Z" fill="white"/>
</g>
<path d="M316.55 131.423C329.149 120.894 330.853 102.114 320.356 89.4762C309.859 76.8386 291.137 75.1291 278.538 85.658C265.939 96.1868 264.234 114.967 274.731 127.605C285.228 140.242 303.951 141.952 316.55 131.423Z" stroke="#273259" stroke-width="1.00001" stroke-miterlimit="10"/>
<path d="M298.444 108.428L323.171 120.931C324.59 118.085 325.502 114.832 325.806 111.478C326.617 103.854 324.286 96.637 319.827 90.9446L298.444 108.428Z" fill="white"/>
<path d="M298.546 107.107L319.219 90.2329C316.179 86.5735 312.227 83.7273 307.666 81.9993L304.018 92.2659L298.546 107.107Z" fill="#58A1CC"/>
<path d="M300.978 80.2712L298.444 104.769L306.855 81.5927C304.93 80.9828 303.005 80.5762 300.978 80.2712Z" fill="#DDDDE1"/>
<path d="M297.127 108.225L299.965 80.1696C284.561 78.8482 270.88 90.1313 269.36 105.582C268.853 110.665 269.664 115.442 271.59 119.813L297.127 108.225Z" fill="#DDDDE1"/>
<path d="M294.695 136.788C306.552 138.008 317.496 131.706 322.665 121.744L297.532 109.038L271.894 120.728C276.048 129.368 284.46 135.772 294.695 136.788Z" fill="#DDDDE1"/>
<path d="M344.756 93.8925L341.412 93.5875C341.108 93.5875 340.804 93.2826 340.804 92.876L341.108 89.5215C341.108 89.2166 341.412 88.9116 341.818 88.9116L345.162 89.2166C345.466 89.2166 345.77 89.5215 345.77 89.9281L345.466 93.2826C345.364 93.5875 345.06 93.8925 344.756 93.8925Z" fill="#58A1CC" stroke="#273259" stroke-miterlimit="10"/>
<path d="M392.285 95.7221L348.607 91.2495C348.303 91.2495 348.101 90.9445 348.101 90.6396C348.101 90.3346 348.405 90.1313 348.709 90.1313L392.386 94.6039C392.69 94.6039 392.893 94.9089 392.893 95.2138C392.791 95.5188 392.589 95.7221 392.285 95.7221Z" fill="#273259"/>
<path d="M387.724 97.6534L348.405 93.5874C348.101 93.5874 347.898 93.2824 347.898 92.9775C347.898 92.6725 348.202 92.4692 348.506 92.4692L387.826 96.5352C388.13 96.5352 388.332 96.8402 388.332 97.1451C388.332 97.4501 388.028 97.6534 387.724 97.6534Z" fill="#273259"/>
<path d="M343.642 104.261L340.297 103.956C339.993 103.956 339.689 103.651 339.689 103.244L339.993 99.8897C339.993 99.5847 340.297 99.2798 340.703 99.2798L344.047 99.5847C344.351 99.5847 344.655 99.8897 344.655 100.296L344.351 103.651C344.351 104.057 344.047 104.362 343.642 104.261Z" fill="#DDDDE1" stroke="#273259" stroke-miterlimit="10" stroke-linecap="round" stroke-linejoin="round"/>
<path d="M391.17 106.192L347.594 101.719C347.29 101.719 347.087 101.415 347.087 101.11C347.087 100.805 347.391 100.601 347.695 100.601L391.372 105.074C391.676 105.074 391.879 105.379 391.879 105.684C391.778 105.989 391.474 106.192 391.17 106.192Z" fill="#273259"/>
<path d="M386.711 108.123L347.391 104.057C347.087 104.057 346.884 103.752 346.884 103.447C346.884 103.143 347.188 102.939 347.492 102.939L386.812 107.005C387.116 107.005 387.319 107.31 387.319 107.615C387.217 107.92 387.015 108.123 386.711 108.123Z" fill="#273259"/>
<path d="M342.628 114.731L339.284 114.426C338.98 114.426 338.676 114.121 338.676 113.714L338.98 110.36C338.98 110.055 339.284 109.75 339.689 109.75L343.033 110.055C343.337 110.055 343.641 110.36 343.641 110.766L343.337 114.121C343.236 114.527 342.932 114.731 342.628 114.731Z" fill="#DDDDE1" stroke="#273259" stroke-miterlimit="10" stroke-linecap="round" stroke-linejoin="round"/>
<path d="M390.156 116.662L346.479 112.189C346.175 112.189 345.972 111.884 345.972 111.58C345.972 111.275 346.276 111.071 346.58 111.071L390.257 115.544C390.561 115.544 390.764 115.849 390.764 116.154C390.663 116.459 390.46 116.662 390.156 116.662Z" fill="#273259"/>
<path d="M385.596 118.492L346.276 114.426C345.972 114.426 345.77 114.121 345.77 113.816C345.77 113.511 346.074 113.308 346.378 113.308L385.697 117.374C386.001 117.374 386.204 117.679 386.204 117.984C386.204 118.288 385.9 118.593 385.596 118.492Z" fill="#273259"/>
<path d="M341.513 125.201L338.169 124.896C337.865 124.896 337.561 124.591 337.561 124.184L337.865 120.83C337.865 120.525 338.169 120.22 338.574 120.22L341.919 120.525C342.223 120.525 342.527 120.83 342.527 121.236L342.223 124.591C342.223 124.997 341.919 125.201 341.513 125.201Z" fill="#DDDDE1" stroke="#273259" stroke-miterlimit="10"/>
<path d="M389.042 127.03L345.365 122.558C345.061 122.558 344.858 122.253 344.858 121.948C344.858 121.643 345.162 121.439 345.466 121.439L389.143 125.912C389.447 125.912 389.65 126.217 389.65 126.522C389.65 126.929 389.346 127.132 389.042 127.03Z" fill="#273259"/>
<path d="M384.583 128.961L345.263 124.895C344.959 124.895 344.756 124.591 344.756 124.286C344.756 123.981 345.06 123.777 345.364 123.777L384.684 127.843C384.988 127.843 385.191 128.148 385.191 128.453C385.089 128.758 384.887 128.961 384.583 128.961Z" fill="#273259"/>
<path d="M340.5 135.569L337.156 135.264C336.852 135.264 336.548 134.959 336.548 134.552L336.852 131.198C336.852 130.893 337.156 130.588 337.561 130.588L340.905 130.893C341.209 130.893 341.513 131.198 341.513 131.604L341.209 134.959C341.108 135.365 340.804 135.67 340.5 135.569Z" fill="white" stroke="#273259" stroke-miterlimit="10" stroke-linecap="round" stroke-linejoin="round"/>
<path d="M388.028 137.5L344.351 133.028C344.047 133.028 343.844 132.723 343.844 132.418C343.844 132.113 344.148 131.909 344.452 131.909L388.13 136.484C388.434 136.484 388.636 136.789 388.636 137.094C388.535 137.297 388.332 137.5 388.028 137.5Z" fill="#273259"/>
<path d="M383.468 139.431L344.148 135.365C343.844 135.365 343.642 135.061 343.642 134.756C343.642 134.451 343.946 134.247 344.25 134.247L383.569 138.313C383.873 138.313 384.076 138.618 384.076 138.923C384.076 139.228 383.772 139.431 383.468 139.431Z" fill="#273259"/>
</g>
<mask id="mask6_452_975" style="mask-type:luminance" maskUnits="userSpaceOnUse" x="232" y="28" width="187" height="244">
<path d="M418.025 45.6088L403.736 185.784L394.919 271.983L271.893 259.378L247.876 256.938L232.574 255.312L246.153 122.253L255.679 28.9382L418.025 45.6088Z" fill="white"/>
</mask>
<g mask="url(#mask6_452_975)">
<path d="M368.578 213.976L371.098 214.235L372.556 199.977L370.035 199.718L368.578 213.976Z" fill="#DDDDE1" stroke="#273259" stroke-miterlimit="10" stroke-linecap="round" stroke-linejoin="round"/>
<path d="M368.718 211.881L371.239 212.14L371.931 205.365L369.41 205.106L368.718 211.881Z" fill="#58A1CC" stroke="#273259" stroke-miterlimit="10"/>
<path d="M374.54 210.99L377.06 211.249L378.516 196.991L375.996 196.732L374.54 210.99Z" fill="#DDDDE1" stroke="#273259" stroke-miterlimit="10" stroke-linecap="round" stroke-linejoin="round"/>
<path d="M375.692 200.465L375 207.24L377.52 207.499L378.212 200.724L375.692 200.465Z" fill="#58A1CC" stroke="#273259" stroke-miterlimit="10"/>
<path d="M379.829 214.265L382.35 214.524L383.806 200.266L381.285 200.007L379.829 214.265Z" fill="#DDDDE1" stroke="#273259" stroke-miterlimit="10" stroke-linecap="round" stroke-linejoin="round"/>
<path d="M380.445 208.931L382.965 209.191L383.658 202.416L381.138 202.156L380.445 208.931Z" fill="#58A1CC" stroke="#273259" stroke-miterlimit="10"/>
<path d="M363.202 210.628L365.723 210.887L367.18 196.629L364.66 196.37L363.202 210.628Z" fill="#DDDDE1" stroke="#273259" stroke-miterlimit="10" stroke-linecap="round" stroke-linejoin="round"/>
<path d="M363.454 208.443L365.975 208.702L366.666 201.927L364.146 201.668L363.454 208.443Z" fill="#58A1CC" stroke="#273259" stroke-miterlimit="10"/>
<path d="M357.194 214.296L359.714 214.555L361.17 200.297L358.65 200.038L357.194 214.296Z" fill="#DDDDE1" stroke="#273259" stroke-miterlimit="10" stroke-linecap="round" stroke-linejoin="round"/>
<path d="M357.354 212.626L359.875 212.885L360.567 206.11L358.047 205.851L357.354 212.626Z" fill="#58A1CC" stroke="#273259" stroke-miterlimit="10"/>
<path d="M351.9 210.027L354.42 210.286L355.876 196.028L353.356 195.769L351.9 210.027Z" fill="#DDDDE1" stroke="#273259" stroke-miterlimit="10" stroke-linecap="round" stroke-linejoin="round"/>
<path d="M352.046 209.403L354.566 209.662L355.259 202.887L352.739 202.628L352.046 209.403Z" fill="#58A1CC" stroke="#273259" stroke-miterlimit="10"/>
<path d="M345.553 216.882L348.073 217.141L349.531 202.883L347.01 202.624L345.553 216.882Z" fill="#DDDDE1" stroke="#273259" stroke-miterlimit="10" stroke-linecap="round" stroke-linejoin="round"/>
<path d="M345.69 216.278L348.21 216.537L348.903 209.762L346.383 209.503L345.69 216.278Z" fill="#58A1CC" stroke="#273259" stroke-miterlimit="10"/>
<path d="M340.929 207.319L343.45 207.578L344.906 193.32L342.385 193.061L340.929 207.319Z" fill="#DDDDE1" stroke="#273259" stroke-miterlimit="10" stroke-linecap="round" stroke-linejoin="round"/>
<path d="M341.081 205.201L343.601 205.459L344.293 198.684L341.773 198.425L341.081 205.201Z" fill="#58A1CC" stroke="#273259" stroke-miterlimit="10"/>
<path d="M335.365 205.895L337.886 206.154L339.343 191.896L336.823 191.637L335.365 205.895Z" fill="#DDDDE1" stroke="#273259" stroke-miterlimit="10" stroke-linecap="round" stroke-linejoin="round"/>
<path d="M335.97 200.506L338.491 200.765L339.183 193.99L336.662 193.731L335.97 200.506Z" fill="#58A1CC" stroke="#273259" stroke-miterlimit="10"/>
<path d="M328.898 214.265L331.418 214.524L332.874 200.266L330.354 200.007L328.898 214.265Z" fill="#DDDDE1" stroke="#273259" stroke-miterlimit="10" stroke-linecap="round" stroke-linejoin="round"/>
<path d="M329.413 208.375L331.933 208.634L332.625 201.859L330.105 201.6L329.413 208.375Z" fill="#58A1CC" stroke="#273259" stroke-miterlimit="10"/>
<path d="M323.925 207.466L326.445 207.725L327.901 193.467L325.381 193.208L323.925 207.466Z" fill="#DDDDE1" stroke="#273259" stroke-miterlimit="10" stroke-linecap="round" stroke-linejoin="round"/>
<path d="M324.187 204.787L326.708 205.046L327.399 198.271L324.879 198.012L324.187 204.787Z" fill="#58A1CC" stroke="#273259" stroke-miterlimit="10"/>
<path d="M317.935 210.596L320.456 210.855L321.913 196.597L319.393 196.338L317.935 210.596Z" fill="#DDDDE1" stroke="#273259" stroke-miterlimit="10" stroke-linecap="round" stroke-linejoin="round"/>
<path d="M318.086 208.398L320.606 208.657L321.298 201.882L318.778 201.623L318.086 208.398Z" fill="#58A1CC" stroke="#273259" stroke-miterlimit="10"/>
<path d="M311.597 216.368L314.118 216.627L315.575 202.369L313.055 202.11L311.597 216.368Z" fill="#DDDDE1" stroke="#273259" stroke-miterlimit="10" stroke-linecap="round" stroke-linejoin="round"/>
<path d="M311.599 216.449L314.12 216.708L314.812 209.932L312.291 209.673L311.599 216.449Z" fill="#58A1CC" stroke="#273259" stroke-miterlimit="10"/>
<path d="M306.979 206.803L309.499 207.062L310.955 192.803L308.435 192.544L306.979 206.803Z" fill="#DDDDE1" stroke="#273259" stroke-miterlimit="10" stroke-linecap="round" stroke-linejoin="round"/>
<path d="M307.127 205.158L309.647 205.417L310.339 198.641L307.819 198.382L307.127 205.158Z" fill="#58A1CC" stroke="#273259" stroke-miterlimit="10"/>
<path d="M302.025 199.884L304.545 200.144L306.003 185.885L303.483 185.626L302.025 199.884Z" fill="#DDDDE1" stroke="#273259" stroke-miterlimit="10" stroke-linecap="round" stroke-linejoin="round"/>
<path d="M302.153 198.36L304.673 198.619L305.365 191.844L302.845 191.585L302.153 198.36Z" fill="#58A1CC" stroke="#273259" stroke-miterlimit="10"/>
<path d="M295.63 206.963L298.15 207.222L299.606 192.964L297.086 192.705L295.63 206.963Z" fill="#DDDDE1" stroke="#273259" stroke-miterlimit="10" stroke-linecap="round" stroke-linejoin="round"/>
<path d="M296.155 201.523L298.676 201.782L299.368 195.007L296.848 194.747L296.155 201.523Z" fill="#58A1CC" stroke="#273259" stroke-miterlimit="10"/>
<path d="M289.151 214.434L291.671 214.693L293.127 200.435L290.607 200.176L289.151 214.434Z" fill="#DDDDE1" stroke="#273259" stroke-miterlimit="10" stroke-linecap="round" stroke-linejoin="round"/>
<path d="M289.779 207.98L292.299 208.239L292.991 201.464L290.471 201.205L289.779 207.98Z" fill="#58A1CC" stroke="#273259" stroke-miterlimit="10"/>
<path d="M284.348 205.768L286.869 206.027L288.325 191.769L285.804 191.51L284.348 205.768Z" fill="#DDDDE1" stroke="#273259" stroke-miterlimit="10" stroke-linecap="round" stroke-linejoin="round"/>
<path d="M284.61 203.643L287.13 203.902L287.823 197.127L285.303 196.868L284.61 203.643Z" fill="#58A1CC" stroke="#273259" stroke-miterlimit="10"/>
<path d="M279 202.791L281.521 203.05L282.978 188.792L280.458 188.533L279 202.791Z" fill="#DDDDE1" stroke="#273259" stroke-miterlimit="10" stroke-linecap="round" stroke-linejoin="round"/>
<path d="M279.606 196.929L282.126 197.188L282.818 190.412L280.298 190.153L279.606 196.929Z" fill="#58A1CC" stroke="#273259" stroke-miterlimit="10"/>
<path d="M272.951 206.69L275.471 206.949L276.929 192.691L274.408 192.432L272.951 206.69Z" fill="#DDDDE1" stroke="#273259" stroke-miterlimit="10" stroke-linecap="round" stroke-linejoin="round"/>
<path d="M272.965 206.666L275.485 206.925L276.177 200.15L273.656 199.891L272.965 206.666Z" fill="#58A1CC" stroke="#273259" stroke-miterlimit="10"/>
<path d="M267.81 201.624L270.33 201.883L271.786 187.625L269.266 187.366L267.81 201.624Z" fill="#DDDDE1" stroke="#273259" stroke-miterlimit="10" stroke-linecap="round" stroke-linejoin="round"/>
<path d="M267.957 200.533L270.478 200.792L271.17 194.017L268.65 193.758L267.957 200.533Z" fill="#58A1CC" stroke="#273259" stroke-miterlimit="10"/>
<path d="M261.972 203.002L264.492 203.26L265.948 189.002L263.428 188.743L261.972 203.002Z" fill="#DDDDE1" stroke="#273259" stroke-miterlimit="10" stroke-linecap="round" stroke-linejoin="round"/>
<path d="M261.997 202.489L264.518 202.748L265.209 195.973L262.689 195.714L261.997 202.489Z" fill="#58A1CC" stroke="#273259" stroke-miterlimit="10"/>
<path d="M256.601 200.623L259.121 200.882L260.577 186.624L258.057 186.365L256.601 200.623Z" fill="#DDDDE1" stroke="#273259" stroke-miterlimit="10" stroke-linecap="round" stroke-linejoin="round"/>
<path d="M257.241 193.597L259.761 193.856L260.453 187.081L257.933 186.822L257.241 193.597Z" fill="#58A1CC" stroke="#273259" stroke-miterlimit="10"/>
</g>
<mask id="mask7_452_975" style="mask-type:luminance" maskUnits="userSpaceOnUse" x="232" y="28" width="187" height="244">
<path d="M418.025 45.6088L403.736 185.784L394.919 271.983L271.893 259.378L247.876 256.938L232.574 255.312L246.153 122.253L255.679 28.9382L418.025 45.6088Z" fill="white"/>
</mask>
<g mask="url(#mask7_452_975)">
<path d="M383.873 231.526L270.171 219.836C269.563 219.735 268.955 220.243 268.853 220.955C268.752 221.564 269.259 222.174 269.968 222.276L383.671 233.966C384.279 234.067 384.887 233.559 384.988 232.848C385.089 232.136 384.481 231.628 383.873 231.526Z" fill="#273259"/>
<path d="M382.961 240.166L250.714 226.545C250.106 226.444 249.498 226.952 249.396 227.664C249.295 228.273 249.802 228.883 250.511 228.985L382.759 242.606C383.367 242.708 383.975 242.199 384.076 241.488C384.076 240.776 383.671 240.166 382.961 240.166Z" fill="#273259"/>
<path d="M326.515 243.013L249.802 235.084C249.193 234.982 248.585 235.491 248.484 236.202C248.383 236.812 248.889 237.422 249.599 237.524L326.313 245.452C326.921 245.554 327.529 245.046 327.63 244.334C327.731 243.623 327.225 243.114 326.515 243.013Z" fill="#273259"/>
</g>
<mask id="mask8_452_975" style="mask-type:luminance" maskUnits="userSpaceOnUse" x="232" y="28" width="187" height="244">
<path d="M418.025 45.6088L403.736 185.784L394.919 271.983L271.893 259.378L247.876 256.938L232.574 255.312L246.153 122.253L255.679 28.9382L418.025 45.6088Z" fill="white"/>
</mask>
<g mask="url(#mask8_452_975)">
<path opacity="0.2" d="M396.439 166.267C392.487 165.962 391.17 172.264 391.17 172.264C391.17 172.264 384.988 164.132 386.001 144.921C386.001 144.921 382.961 136.382 374.854 141.566C366.747 146.649 358.336 164.742 360.363 184.462L344.554 131.909C339.081 133.028 328.035 140.448 330.974 175.924L313.746 157.627C313.746 157.627 309.085 156.102 306.45 160.27C303.815 164.437 305.031 194.017 307.261 205.097C309.49 216.177 303.917 238.438 303.917 238.438C303.917 238.438 297.938 213.229 287.196 206.825L246.153 122.253L232.574 255.312L247.876 256.939L272.501 244.944C272.4 250.535 272.197 255.617 271.792 259.378L394.818 271.983L403.634 185.784C400.797 175.111 397.858 166.369 396.439 166.267Z" fill="#9797B1"/>
</g>
<path d="M418.025 45.6088L403.736 185.784L394.919 271.983L271.893 259.378L247.876 256.938L232.574 255.312L246.153 122.253L255.679 28.9382L418.025 45.6088Z" stroke="#273259" stroke-miterlimit="10" stroke-linecap="round" stroke-linejoin="round"/>
<path d="M415.998 406.465L344.047 418.765C344.047 418.765 331.481 352.083 324.083 341.511C316.584 331.041 318.003 326.67 314.355 319.555C312.125 315.285 301.18 307.255 292.567 299.428C291.857 298.716 291.047 298.107 290.337 297.395C290.033 297.09 289.729 296.785 289.425 296.582C288.31 295.464 287.196 294.346 286.284 293.227C285.98 292.821 285.574 292.414 285.27 292.109C283.446 289.873 282.23 287.84 281.825 285.909C281.825 285.807 281.825 285.705 281.723 285.604C281.723 285.502 281.723 285.4 281.622 285.197C281.419 283.571 281.217 281.843 281.014 279.911C281.014 279.505 280.913 279.098 280.913 278.691C280.913 278.488 280.913 278.387 280.811 278.183C280.609 276.557 280.406 274.829 280.203 273.101C280.001 271.271 279.697 269.34 279.494 267.408C279.393 266.697 279.291 266.087 279.19 265.375C279.089 264.664 278.987 263.851 278.785 263.139C278.683 262.529 278.582 261.818 278.48 261.208C278.48 261.106 278.379 261.004 278.379 260.903C278.278 260.09 278.075 259.378 277.974 258.666C277.974 258.565 277.974 258.463 277.974 258.463C277.872 257.853 277.67 257.142 277.568 256.532C277.264 255.007 276.859 253.584 276.555 252.263C275.744 249.416 274.934 246.875 273.92 244.537C268.752 232.949 275.44 237.117 271.387 207.232C271.387 207.232 274.427 200.32 282.939 205.809C283.547 206.215 284.257 206.724 284.865 207.232C286.588 208.655 288.108 210.281 289.425 212.111C291.148 214.551 292.465 217.193 293.377 220.243C294.695 224.715 295.201 229.595 294.492 234.779C294.492 234.779 300.876 256.837 304.221 261.818C307.565 266.798 321.55 238.032 320.638 234.677C320.435 233.966 320.232 232.339 319.928 230.103C319.827 229.595 319.827 229.086 319.726 228.477C319.624 227.867 319.624 227.358 319.523 226.748C319.523 226.444 319.422 226.139 319.422 225.834C319.422 225.732 319.422 225.63 319.422 225.427C319.32 224.309 319.118 223.089 319.016 221.768C319.016 221.361 318.915 221.056 318.915 220.751C318.814 220.141 318.814 219.531 318.712 218.921C318.712 218.82 318.712 218.718 318.712 218.617C318.712 218.312 318.611 217.905 318.611 217.6C318.509 216.888 318.51 216.177 318.408 215.465C318.307 214.855 318.307 214.246 318.205 213.636C318.104 212.518 318.003 211.298 317.901 210.18C317.8 209.366 317.699 208.452 317.699 207.638C317.699 207.435 317.699 207.232 317.597 207.13C317.192 202.658 316.787 198.998 316.685 197.372C316.685 197.372 306.551 182.328 305.538 175.212C304.525 168.097 304.626 160.676 308.781 157.627C318.814 150.41 315.875 161.998 320.435 166.775C324.894 171.553 331.785 179.38 335.737 181.819C339.385 184.157 342.527 193.001 343.034 194.322C342.527 192.391 337.359 173.179 337.257 169.316C337.156 165.25 334.014 143.701 339.284 135.975C344.554 128.25 351.546 134.247 352.255 135.772C352.864 137.297 353.066 158.135 354.992 163.929C356.816 169.723 364.619 193.916 364.619 193.916C364.619 193.916 364.923 170.435 366.646 159.863C368.368 149.393 372.929 141.159 377.388 140.651C381.847 140.143 386.001 145.124 386.001 145.124C386.001 145.124 384.279 161.896 384.785 165.759C385.292 169.621 384.076 183.649 386.204 191.171C386.204 191.171 386.001 171.146 389.042 168.605C392.183 166.064 394.818 164.844 396.541 166.572C398.264 168.3 398.669 180.193 400.392 187.308C402.216 194.424 401.912 204.182 403.128 215.262C404.344 226.342 408.904 241.793 407.992 250.636C407.08 259.48 404.243 281.334 402.013 294.244C399.784 307.153 394.007 324.739 394.007 324.739C394.007 324.739 396.642 334.091 396.135 342.528C395.426 350.659 415.998 406.465 415.998 406.465Z" fill="white"/>
<path opacity="0.4" d="M354.89 163.726C356.309 167.995 360.869 182.327 363.2 189.545C363.2 189.545 353.167 196.965 353.37 203.877C353.674 210.789 351.546 224.715 346.985 224.309C342.527 223.902 342.831 194.932 341.412 190.155C342.324 192.289 342.932 193.916 343.033 194.322C342.729 193.102 337.358 173.179 337.257 169.215C337.257 168.3 337.054 166.47 336.852 164.031C336.852 164.031 346.884 154.475 354.181 160.269C354.383 161.591 354.586 162.811 354.89 163.726Z" fill="#58A1CC"/>
<path opacity="0.4" d="M384.785 172.061C380.124 176.533 373.03 184.361 372.118 191.984C372.118 191.984 374.753 213.229 373.638 222.378L364.518 193.712C364.518 193.712 364.822 170.231 366.646 159.66C366.646 159.355 366.747 159.05 366.848 158.745C371.307 156.407 377.489 154.374 385.191 154.272C384.887 158.846 384.583 163.624 384.785 165.555C384.785 166.877 384.785 169.215 384.785 172.061Z" fill="#58A1CC"/>
<path opacity="0.4" d="M388.94 168.402C388.839 168.402 388.839 168.402 388.94 168.402C388.839 168.503 388.535 168.707 388.129 169.113C388.332 168.605 388.636 168.198 388.94 167.792V168.402Z" fill="#58A1CC"/>
<path opacity="0.4" d="M391.271 226.952C391.271 226.952 385.292 204.284 385.19 186.089C385.19 179.38 385.9 173.179 388.129 169.011C388.332 168.503 388.636 168.097 388.94 167.69V168.3C390.257 167.283 391.473 166.369 392.487 165.962C390.764 168.605 388.839 173.789 391.068 182.226C394.615 195.339 391.575 211.501 391.271 226.952Z" fill="#58A1CC"/>
<path opacity="0.4" d="M308.274 270.153C308.274 270.153 309.896 291.702 292.567 299.428C291.857 298.716 291.046 298.106 290.438 297.395C290.134 297.09 289.83 296.785 289.526 296.582C288.412 295.464 287.297 294.345 286.385 293.227C286.081 292.821 285.675 292.414 285.371 292.109C283.547 289.873 282.331 287.84 281.926 285.908C281.926 285.807 281.825 285.705 281.825 285.604C281.825 285.502 281.825 285.299 281.723 285.197C281.521 283.672 281.318 281.842 281.115 279.911C281.115 279.505 281.014 279.098 281.014 278.691C281.014 278.488 281.014 278.386 280.913 278.183C280.71 276.557 280.507 274.829 280.304 272.999C280.102 271.169 279.798 269.238 279.595 267.307C279.494 266.595 279.392 265.985 279.291 265.274C279.19 264.562 279.088 263.749 278.886 263.037C278.784 262.427 278.683 261.716 278.582 261.106C278.582 261.004 278.582 260.903 278.48 260.801C278.379 260.089 278.176 259.276 278.075 258.565C278.075 258.463 278.075 258.361 278.075 258.26C277.974 257.548 277.771 256.938 277.67 256.328C277.366 254.905 276.96 253.381 276.656 251.957C283.547 245.35 299.255 249.518 291.654 234.169C291.654 234.169 295.505 221.056 284.865 206.927C292.161 212.822 295.809 223.089 294.492 234.372C294.492 234.372 300.876 256.43 304.221 261.411C307.565 266.392 321.55 237.625 320.637 234.27C320.435 233.559 320.232 231.932 319.928 229.696C319.827 229.188 319.827 228.68 319.725 228.07C319.624 227.562 319.624 226.952 319.523 226.342C319.523 226.037 319.421 225.732 319.421 225.427C319.421 225.325 319.421 225.224 319.421 225.02C319.32 223.902 319.117 222.682 319.016 221.361C319.016 221.056 318.915 220.649 318.915 220.344C318.813 219.735 318.813 219.125 318.712 218.515C318.712 218.413 318.712 218.311 318.712 218.21C318.712 217.905 318.611 217.498 318.611 217.092C318.509 216.38 318.509 215.669 318.408 214.957C318.307 214.347 318.307 213.737 318.205 213.127C318.104 212.009 318.003 210.789 317.901 209.671C317.8 208.858 317.699 207.943 317.699 207.232C317.699 207.028 317.699 206.825 317.699 206.723C318.003 208.045 323.07 232.542 326.008 238.336C328.947 244.232 316.179 275.235 308.274 270.153Z" fill="#58A1CC"/>
<path opacity="0.4" d="M401.911 294.041C399.682 306.95 393.906 324.535 393.906 324.535C393.906 324.535 396.54 333.989 396.034 342.324C395.932 344.56 397.25 350.253 399.378 357.368C398.77 355.844 392.284 338.97 392.386 333.176C392.487 327.077 390.764 325.349 387.319 317.827C383.873 310.304 378.705 311.118 378.705 311.118C378.705 311.118 376.678 329.923 372.016 317.623C367.253 305.222 366.341 290.788 378.299 240.776C378.299 240.776 380.123 247.078 378.603 265.68C377.083 284.282 381.542 289.975 381.542 289.975C381.542 289.975 391.169 274.117 397.351 252.974C397.351 252.974 395.831 274.727 394.412 284.587C392.994 294.447 399.277 273.101 403.634 259.886C407.688 247.485 407.89 242.809 406.37 233.966C407.485 240.166 408.397 246.062 407.992 250.433C406.978 259.175 404.141 281.131 401.911 294.041Z" fill="#58A1CC"/>
<path opacity="0.4" d="M320.536 335.92C324.083 341.511 332.596 348.931 337.764 369.363C342.831 389.794 339.689 412.157 339.689 412.157L320.536 335.92Z" fill="#58A1CC"/>
<path opacity="0.2" d="M293.378 219.836C293.378 219.836 275.441 228.985 274.022 244.232C268.853 232.644 275.542 236.812 271.488 206.927C271.488 206.927 274.528 200.015 283.041 205.504C283.649 205.91 284.358 206.418 284.966 206.927C286.689 208.35 288.209 209.976 289.527 211.806L293.378 219.836Z" fill="black" fill-opacity="0.7"/>
<path d="M344.047 418.765C344.047 418.765 331.481 351.981 324.083 341.511C316.584 331.041 318.003 326.67 314.355 319.555C310.707 312.439 283.041 295.26 281.825 285.197C280.609 275.134 279.19 255.82 274.022 244.232C268.853 232.644 275.542 236.812 271.488 206.927C271.488 206.927 274.528 200.015 283.041 205.504C291.553 210.993 296.012 222.073 294.594 234.372C294.594 234.372 300.978 256.328 304.424 261.411C307.768 266.392 321.753 237.625 320.841 234.27C319.928 230.916 317.294 202.251 316.888 197.067C316.888 197.067 306.754 182.023 305.741 174.907C304.728 167.792 304.829 160.371 308.984 157.322C319.016 150.105 316.078 161.693 320.638 166.47C325.097 171.248 332.089 179.075 335.94 181.514C339.791 183.954 343.237 194.221 343.237 194.221C343.237 194.221 337.561 173.179 337.359 169.011C337.257 164.945 334.116 143.396 339.386 135.772C344.655 128.047 351.648 134.044 352.357 135.569C352.965 137.093 353.168 157.932 355.093 163.726C356.917 169.52 364.72 193.712 364.72 193.712C364.72 193.712 365.024 170.231 366.849 159.66C368.571 149.19 373.132 140.956 377.591 140.448C382.049 139.94 386.204 144.92 386.204 144.92C386.204 144.92 384.482 161.693 384.988 165.555C385.495 169.418 384.279 183.446 386.407 190.968C386.407 190.968 386.204 170.943 389.245 168.401C392.386 165.86 395.021 164.64 396.744 166.368C398.466 168.097 398.872 179.99 400.595 187.105C402.419 194.221 402.115 203.979 403.331 215.059C404.445 226.139 409.107 241.691 408.195 250.433C407.283 259.276 404.445 281.131 402.216 294.041C399.986 306.95 394.21 324.535 394.21 324.535C394.21 324.535 396.845 333.887 396.338 342.324C395.832 350.659 416.403 406.567 416.403 406.567" stroke="#263238" stroke-miterlimit="10" stroke-linecap="round" stroke-linejoin="round"/>
<path d="M364.518 193.712C366.646 198.693 371.814 219.531 373.638 222.377C375.462 225.224 377.59 226.138 377.59 226.138" stroke="#263238" stroke-miterlimit="10" stroke-linecap="round" stroke-linejoin="round"/>
<path d="M386.001 190.968C386.001 190.968 385.596 195.237 387.826 208.858C390.156 222.479 391.271 228.273 392.589 231.323" stroke="#263238" stroke-miterlimit="10" stroke-linecap="round" stroke-linejoin="round"/>
<path d="M343.034 194.22C345.871 202.556 347.391 215.77 349.013 219.735C350.634 223.699 352.053 224.512 352.053 224.512" stroke="#263238" stroke-miterlimit="10" stroke-linecap="round" stroke-linejoin="round"/>
<path d="M347.594 214.144C347.594 214.144 350.533 216.38 351.445 219.023" stroke="#263238" stroke-miterlimit="10" stroke-linecap="round" stroke-linejoin="round"/>
<path d="M304.221 261.411C304.221 261.411 305.741 272.389 312.632 271.576" stroke="#263238" stroke-miterlimit="10" stroke-linecap="round" stroke-linejoin="round"/>
<path d="M320.638 234.271C320.638 234.271 322.462 247.383 319.523 252.872" stroke="#263238" stroke-miterlimit="10" stroke-linecap="round" stroke-linejoin="round"/>
<path d="M375.665 234.372C375.665 234.372 380.326 237.218 377.185 245.554C374.043 253.889 368.672 287.433 368.672 287.433" stroke="#263238" stroke-miterlimit="10" stroke-linecap="round" stroke-linejoin="round"/>
<path d="M395.73 243.216C397.656 250.738 397.858 250.941 394.717 260.191C391.575 269.441 386.508 292.109 386.508 292.109" stroke="#263238" stroke-miterlimit="10" stroke-linecap="round" stroke-linejoin="round"/>
<path d="M393.906 324.434C393.906 324.434 390.866 318.335 393.399 313.252" stroke="#263238" stroke-miterlimit="10" stroke-linecap="round" stroke-linejoin="round"/>
<path d="M324.083 341.511C324.083 341.511 331.683 352.286 335.028 364.281" stroke="#263238" stroke-miterlimit="10" stroke-linecap="round" stroke-linejoin="round"/>
<path d="M380.327 152.849L382.353 150.816L383.266 150.511V151.528L381.34 153.967L380.327 152.849Z" fill="#757575" stroke="#263238" stroke-miterlimit="10" stroke-linecap="round" stroke-linejoin="round"/>
<path d="M381.948 153.967L378.604 161.591L288.209 282.453L278.177 276.049L291.858 258.87L373.03 156.712L380.225 152.138C380.225 152.138 381.745 152.544 381.948 153.967Z" fill="#58A1CC"/>
<mask id="mask9_452_975" style="mask-type:luminance" maskUnits="userSpaceOnUse" x="278" y="152" width="104" height="131">
<path d="M381.948 153.967L378.604 161.591L288.209 282.453L278.177 276.049L291.858 258.87L373.03 156.712L380.225 152.138C380.225 152.138 381.745 152.544 381.948 153.967Z" fill="white"/>
</mask>
<g mask="url(#mask9_452_975)">
<path opacity="0.3" d="M381.948 153.967L378.604 161.591L288.209 282.453L278.177 276.049L291.858 258.87C298.141 258.26 299.154 261.919 299.154 261.919L376.983 159.965C376.172 157.22 372.929 156.712 372.929 156.712L380.124 152.138C380.225 152.138 381.745 152.544 381.948 153.967Z" fill="black" fill-opacity="0.7"/>
</g>
<path d="M381.948 153.967L378.604 161.591L288.209 282.453L278.177 276.049L291.858 258.87L373.03 156.712L380.225 152.138C380.225 152.138 381.745 152.544 381.948 153.967Z" stroke="#263238" stroke-miterlimit="10" stroke-linecap="round" stroke-linejoin="round"/>
<path d="M317.699 246.672C317.699 246.672 307.565 266.799 297.938 280.928L291.047 282.758C291.047 282.758 275.137 298.615 265.408 306.544C265.408 306.544 262.874 305.121 260.645 302.579C260.645 302.579 274.427 276.049 289.628 259.277C289.628 259.277 291.858 259.988 294.594 261.919C296.215 263.139 298.141 264.766 299.863 266.9L316.888 245.452L317.699 246.672Z" fill="#58A1CC"/>
<mask id="mask10_452_975" style="mask-type:luminance" maskUnits="userSpaceOnUse" x="260" y="245" width="58" height="62">
<path d="M317.699 246.672C317.699 246.672 307.565 266.799 297.938 280.928L291.047 282.758C291.047 282.758 275.137 298.615 265.408 306.544C265.408 306.544 262.874 305.121 260.645 302.579C260.645 302.579 274.427 276.049 289.628 259.277C289.628 259.277 291.858 259.988 294.594 261.919C296.215 263.139 298.141 264.766 299.863 266.9L316.888 245.452L317.699 246.672Z" fill="white"/>
</mask>
<g mask="url(#mask10_452_975)">
<path opacity="0.3" d="M317.699 246.672C317.699 246.672 307.565 266.799 297.938 280.928L291.047 282.758C291.047 282.758 275.136 298.615 265.408 306.544L265.712 302.274C276.251 286.112 289.628 268.527 294.695 261.919C296.316 263.139 298.242 264.766 299.964 266.9L290.54 279.505L295.911 278.488L316.989 245.351L317.699 246.672Z" fill="black" fill-opacity="0.7"/>
</g>
<path d="M317.699 246.672C317.699 246.672 307.565 266.799 297.938 280.928L291.047 282.758C291.047 282.758 275.137 298.615 265.408 306.544C265.408 306.544 262.874 305.121 260.645 302.579C260.645 302.579 274.427 276.049 289.628 259.277C289.628 259.277 291.858 259.988 294.594 261.919C296.215 263.139 298.141 264.766 299.863 266.9L316.888 245.452L317.699 246.672Z" stroke="#263238" stroke-miterlimit="10" stroke-linecap="round" stroke-linejoin="round"/>
<path d="M352.053 224.614L323.779 252.059L319.219 256.43C322.259 248.501 320.841 236.1 320.638 234.677C320.638 234.575 320.638 234.575 320.638 234.575C320.638 234.474 320.638 234.372 320.638 234.372C320.435 233.661 320.233 232.034 319.929 229.798C319.827 229.29 319.827 228.781 319.726 228.171C319.625 227.663 319.625 227.053 319.523 226.443C319.523 226.138 319.422 225.834 319.422 225.529C319.422 225.427 319.422 225.325 319.422 225.122C319.321 224.004 319.118 222.784 319.016 221.463C319.016 221.158 318.915 220.751 318.915 220.446C318.814 219.836 318.814 219.226 318.712 218.616C318.712 218.515 318.712 218.413 318.712 218.311C318.712 218.006 318.611 217.6 318.611 217.193C318.51 216.482 318.51 215.77 318.408 215.059C318.307 214.449 318.307 213.839 318.206 213.229C318.104 212.111 318.003 210.891 317.902 209.773C317.8 208.96 317.699 208.146 317.699 207.333C317.699 207.13 317.699 206.927 317.699 206.825C317.294 202.352 316.888 198.693 316.787 197.067C316.787 197.067 306.653 182.022 305.64 174.907C304.626 167.792 304.728 160.371 308.984 157.322C319.016 150.104 316.078 161.693 320.638 166.47C325.097 171.248 332.089 179.075 335.94 181.514C339.892 183.954 343.237 194.22 343.237 194.22C346.074 202.556 347.594 215.77 349.216 219.735C350.634 223.699 352.053 224.614 352.053 224.614Z" fill="white"/>
<path d="M347.594 214.144C347.594 214.144 350.533 216.38 351.445 219.023" stroke="#263238" stroke-miterlimit="10" stroke-linecap="round" stroke-linejoin="round"/>
<path opacity="0.4" d="M320.435 166.47C324.894 171.248 331.785 179.075 335.737 181.514C335.231 181.209 328.036 177.753 323.982 181.616C319.827 185.682 316.787 197.067 316.787 197.067C316.787 197.067 306.653 182.022 305.64 174.907C304.626 167.792 304.728 160.371 308.984 157.322C318.814 150.104 315.875 161.693 320.435 166.47Z" fill="#58A1CC"/>
<path opacity="0.4" d="M323.881 252.059L319.32 256.43C322.361 248.501 320.942 236.1 320.739 234.677C320.739 234.575 320.739 234.474 320.739 234.372C320.536 233.66 320.334 232.034 320.03 229.798C319.928 229.29 319.928 228.781 319.827 228.171C319.726 227.663 319.726 227.053 319.624 226.443C319.624 226.138 319.523 225.833 319.523 225.529C319.523 225.427 319.523 225.325 319.523 225.122C319.422 224.004 319.219 222.784 319.118 221.463C319.118 221.158 319.016 220.751 319.016 220.446C318.915 219.836 318.915 219.226 318.814 218.616C318.814 218.515 318.814 218.413 318.814 218.311C318.814 218.006 318.712 217.6 318.712 217.193C318.611 216.482 318.611 215.77 318.51 215.059C318.408 214.449 318.408 213.839 318.307 213.229C318.206 212.111 318.104 210.891 318.003 209.773C317.902 208.96 317.8 208.045 317.8 207.333C317.8 207.13 317.8 206.927 317.8 206.825C318.104 208.146 323.171 232.644 326.11 238.438C327.022 240.573 326.009 246.062 323.881 252.059Z" fill="#58A1CC"/>
<path d="M352.053 224.614C352.053 224.614 350.634 223.8 349.013 219.836C347.391 215.872 345.871 202.657 343.034 194.322C343.034 194.322 339.588 184.157 335.737 181.616C331.886 179.075 324.894 171.349 320.435 166.572C315.976 161.794 318.915 150.206 308.781 157.423C304.525 160.473 304.423 167.893 305.538 175.009C306.552 182.124 316.686 197.168 316.686 197.168C317.091 202.352 319.827 231.018 320.638 234.372" stroke="#263238" stroke-miterlimit="10" stroke-linecap="round" stroke-linejoin="round"/>
<path d="M320.638 234.271C320.638 234.271 322.462 247.383 319.523 252.872" stroke="#263238" stroke-miterlimit="10" stroke-linecap="round" stroke-linejoin="round"/>
<path opacity="0.2" d="M147.348 250.331C147.348 250.331 153.732 280.216 139.848 301.969C125.965 323.722 115.223 329.516 110.46 336.022C105.697 342.527 86.848 378.816 86.848 378.816L64.8574 313.354L86.848 232.542L147.348 250.331Z" fill="black" fill-opacity="0.7"/>
<path d="M276.961 227.46L140.659 284.994L126.573 290.889L100.022 227.765L38.5093 81.1861L188.998 17.655L276.961 227.46Z" fill="white"/>
<mask id="mask11_452_975" style="mask-type:luminance" maskUnits="userSpaceOnUse" x="38" y="17" width="239" height="274">
<path d="M276.961 227.46L140.659 284.994L126.573 290.889L100.022 227.765L38.5093 81.1861L188.998 17.655L276.961 227.46Z" fill="white"/>
</mask>
<g mask="url(#mask11_452_975)">
<path d="M150.084 44.9989L85.1255 72.3426C83.9094 72.8509 83.3014 74.274 83.8081 75.4938C84.3148 76.7136 85.7336 77.3235 86.9496 76.8152L151.908 49.3698C153.124 48.8616 153.732 47.4385 153.226 46.2187C152.719 44.9989 151.3 44.4906 150.084 44.9989Z" fill="#273259"/>
</g>
<mask id="mask12_452_975" style="mask-type:luminance" maskUnits="userSpaceOnUse" x="38" y="17" width="239" height="274">
<path d="M276.961 227.46L140.659 284.994L126.573 290.889L100.022 227.765L38.5093 81.1861L188.998 17.655L276.961 227.46Z" fill="white"/>
</mask>
<g mask="url(#mask12_452_975)">
<path d="M137.72 60.9578L105.292 74.6805C104.684 74.9854 104.38 75.5953 104.684 76.2052C104.988 76.8151 105.596 77.1201 106.204 76.8151L138.632 63.0924C139.24 62.7875 139.544 62.1776 139.24 61.5677C139.038 60.9578 138.328 60.6528 137.72 60.9578Z" fill="#273259"/>
</g>
<mask id="mask13_452_975" style="mask-type:luminance" maskUnits="userSpaceOnUse" x="38" y="17" width="239" height="274">
<path d="M276.961 227.46L140.659 284.994L126.573 290.889L100.022 227.765L38.5093 81.1861L188.998 17.655L276.961 227.46Z" fill="white"/>
</mask>
<g mask="url(#mask13_452_975)">
<path d="M191.126 144.412C191.126 144.412 192.545 155.187 188.491 156.915C184.843 158.44 179.979 152.646 175.824 154.475C171.568 156.203 174.912 171.553 170.858 173.281C166.805 175.009 161.94 168.706 158.394 170.231C154.847 171.756 156.975 179.583 153.428 181.108C150.489 182.327 146.233 176.127 142.787 174.704C142.078 174.399 141.369 174.297 140.76 174.602C137.214 176.127 138.936 192.492 135.896 193.814C134.883 194.22 133.971 194.322 133.16 194.22C131.944 194.119 130.829 193.814 129.715 193.916C129.309 193.916 128.904 194.017 128.397 194.22C125.762 195.339 126.168 203.979 123.735 204.995C121.303 206.012 118.973 204.792 116.439 205.809C113.906 206.927 113.906 211.399 110.055 213.026L111.676 216.888L205.01 177.448" fill="#DDDDE1"/>
<path d="M191.126 144.412C191.126 144.412 192.545 155.187 188.491 156.915C184.843 158.44 179.979 152.646 175.824 154.475C171.568 156.203 174.912 171.553 170.858 173.281C166.805 175.009 161.94 168.706 158.394 170.231C154.847 171.756 156.975 179.583 153.428 181.108C150.489 182.327 146.233 176.127 142.787 174.704C142.078 174.399 141.369 174.297 140.76 174.602C137.214 176.127 138.936 192.492 135.896 193.814C134.883 194.22 133.971 194.322 133.16 194.22C131.944 194.119 130.829 193.814 129.715 193.915C129.309 193.915 128.904 194.017 128.397 194.22C125.762 195.339 126.168 203.979 123.735 204.995C121.303 206.012 118.973 204.792 116.439 205.809C113.906 206.927 113.906 211.399 110.055 213.026L111.676 216.888L205.01 177.448" stroke="#273259" stroke-miterlimit="10"/>
<path d="M92.7256 171.857L111.575 216.888L209.367 175.618" stroke="#273259" stroke-miterlimit="10" stroke-linecap="round" stroke-linejoin="round"/>
<path d="M198.625 162.302C198.625 162.302 198.119 161.693 197.51 161.083C196.294 159.964 194.369 158.44 192.95 159.05C191.531 159.66 191.43 161.997 191.43 164.539C191.43 167.588 191.734 170.943 190.214 171.553C188.897 172.061 187.681 171.248 186.465 170.333C185.046 169.316 183.627 168.198 181.904 168.91C179.067 170.129 179.877 173.891 178.864 177.143C178.357 178.77 177.344 180.294 175.115 181.209C172.581 182.226 170.149 181.209 167.717 179.583C163.663 176.838 160.116 172.366 157.785 173.382C154.036 174.907 158.191 185.072 154.137 186.698C151.908 187.613 147.246 180.599 142.787 174.5C139.24 169.723 135.795 165.555 133.667 166.368C128.802 168.401 136.808 192.492 133.261 194.017H133.16C131.741 194.627 130.627 194.22 129.715 193.712C128.498 193.001 127.384 191.984 126.066 192.594C123.533 193.712 124.952 203.166 122.114 204.385C119.277 205.605 117.554 203.877 114.412 205.199C111.676 206.317 110.055 212.924 110.055 212.924L111.676 216.787L205.01 177.347" fill="#58A1CC"/>
<path d="M198.625 162.302C198.625 162.302 198.119 161.693 197.51 161.083C196.294 159.964 194.369 158.44 192.95 159.05C191.531 159.66 191.43 161.997 191.43 164.539C191.43 167.588 191.734 170.943 190.214 171.553C188.897 172.061 187.681 171.248 186.465 170.333C185.046 169.316 183.627 168.198 181.904 168.91C179.067 170.129 179.877 173.891 178.864 177.143C178.357 178.77 177.344 180.294 175.115 181.209C172.581 182.226 170.149 181.209 167.717 179.583C163.663 176.838 160.116 172.366 157.785 173.382C154.036 174.907 158.191 185.072 154.137 186.698C151.908 187.613 147.246 180.599 142.787 174.5C139.24 169.723 135.795 165.555 133.667 166.368C128.802 168.401 136.808 192.492 133.261 194.017H133.16C131.741 194.627 130.627 194.22 129.715 193.712C128.498 193.001 127.384 191.984 126.066 192.594C123.533 193.712 124.952 203.166 122.114 204.385C119.277 205.605 117.554 203.877 114.412 205.199C111.676 206.317 110.055 212.924 110.055 212.924L111.676 216.787L205.01 177.347" stroke="#273259" stroke-miterlimit="10" stroke-linecap="round" stroke-linejoin="round"/>
<path d="M178.864 194.424L146.435 208.146C145.827 208.451 145.523 209.061 145.827 209.671C146.131 210.281 146.739 210.586 147.347 210.281L179.776 196.558C180.384 196.253 180.688 195.644 180.384 195.034C180.181 194.525 179.472 194.22 178.864 194.424Z" fill="#273259"/>
<path d="M206.428 144.819L203.287 146.14C202.983 146.242 202.577 146.14 202.476 145.835L201.159 142.684C201.057 142.379 201.159 141.973 201.463 141.871L204.604 140.55C204.908 140.448 205.314 140.55 205.415 140.855L206.732 144.006C206.834 144.311 206.732 144.717 206.428 144.819Z" fill="#DDDDE1" stroke="#273259" stroke-miterlimit="10"/>
<path d="M221.528 135.162L208.556 140.651C208.252 140.753 207.948 140.651 207.847 140.346C207.746 140.041 207.847 139.736 208.151 139.635L221.123 134.146C221.427 134.044 221.731 134.146 221.832 134.45C221.933 134.755 221.832 135.06 221.528 135.162Z" fill="#273259"/>
<path d="M218.488 139.025L209.469 142.786C209.165 142.888 208.861 142.786 208.759 142.481C208.658 142.176 208.759 141.871 209.063 141.769L218.082 138.008C218.386 137.907 218.69 138.008 218.792 138.313C218.893 138.618 218.792 138.923 218.488 139.025Z" fill="#273259"/>
<path d="M210.482 154.475L207.34 155.797C207.036 155.898 206.631 155.797 206.53 155.492L205.212 152.341C205.111 152.036 205.212 151.629 205.516 151.528L208.658 150.206C208.962 150.104 209.367 150.206 209.469 150.511L210.786 153.662C210.887 153.967 210.786 154.374 210.482 154.475Z" fill="#58A1CC" stroke="#273259" stroke-miterlimit="10" stroke-linecap="round" stroke-linejoin="round"/>
<path d="M225.582 144.92L212.61 150.409C212.306 150.511 212.002 150.409 211.901 150.104C211.799 149.8 211.901 149.495 212.205 149.393L225.176 143.904C225.48 143.802 225.784 143.904 225.886 144.209C225.987 144.514 225.886 144.717 225.582 144.92Z" fill="#273259"/>
<path d="M222.541 148.681L213.522 152.442C213.218 152.544 212.914 152.442 212.813 152.137C212.712 151.832 212.813 151.528 213.117 151.426L222.136 147.665C222.44 147.563 222.744 147.665 222.845 147.97C222.947 148.275 222.845 148.58 222.541 148.681Z" fill="#273259"/>
</g>
<mask id="mask14_452_975" style="mask-type:luminance" maskUnits="userSpaceOnUse" x="38" y="17" width="239" height="274">
<path d="M276.961 227.46L140.659 284.994L126.573 290.889L100.022 227.765L38.5093 81.1861L188.998 17.655L276.961 227.46Z" fill="white"/>
</mask>
<g mask="url(#mask14_452_975)">
<path d="M242.708 184.767L137.315 229.29C136.707 229.595 136.403 230.205 136.707 230.814C137.011 231.424 137.619 231.729 138.227 231.424L243.62 186.902C244.228 186.597 244.532 185.987 244.228 185.377C243.924 184.767 243.316 184.462 242.708 184.767Z" fill="#273259"/>
<path d="M245.951 192.696L123.431 244.435C122.823 244.74 122.519 245.35 122.823 245.96C123.127 246.57 123.735 246.875 124.343 246.57L246.863 194.83C247.471 194.525 247.775 193.916 247.471 193.306C247.268 192.797 246.559 192.492 245.951 192.696Z" fill="#273259"/>
<path d="M249.295 200.726L126.776 252.364C126.168 252.669 125.864 253.279 126.168 253.889C126.472 254.499 127.08 254.804 127.688 254.499L250.308 202.861C250.916 202.556 251.22 201.946 250.916 201.336C250.612 200.726 249.903 200.421 249.295 200.726Z" fill="#273259"/>
<path d="M252.639 208.655L130.12 260.394C129.512 260.699 129.208 261.309 129.512 261.919C129.816 262.529 130.424 262.834 131.032 262.529L253.551 210.789C254.159 210.484 254.463 209.875 254.159 209.265C253.956 208.655 253.247 208.35 252.639 208.655Z" fill="#273259"/>
<path d="M204.503 238.336L133.464 268.323C132.856 268.628 132.552 269.238 132.856 269.848C133.16 270.458 133.768 270.763 134.376 270.458L205.415 240.471C206.023 240.166 206.327 239.556 206.023 238.946C205.82 238.336 205.111 238.031 204.503 238.336Z" fill="#273259"/>
</g>
<mask id="mask15_452_975" style="mask-type:luminance" maskUnits="userSpaceOnUse" x="38" y="17" width="239" height="274">
<path d="M276.961 227.46L140.659 284.994L126.573 290.889L100.022 227.765L38.5093 81.1861L188.998 17.655L276.961 227.46Z" fill="white"/>
</mask>
<g mask="url(#mask15_452_975)">
<path d="M165.386 83.1174C165.386 83.1174 166.805 93.8923 162.752 95.6203C159.103 97.1451 154.239 91.3511 150.084 93.1808C145.828 94.9088 149.172 110.258 145.119 111.986C141.065 113.714 136.201 107.412 132.654 108.936C129.107 110.461 131.235 118.288 127.688 119.813C124.749 121.033 120.493 114.832 117.048 113.409C116.338 113.104 115.629 113.002 115.021 113.307C111.474 114.832 113.197 131.198 110.156 132.519C109.143 132.926 108.231 133.027 107.42 132.926C106.204 132.824 105.089 132.519 103.975 132.621C103.569 132.621 103.164 132.722 102.657 132.926C100.023 134.044 100.428 142.684 97.9957 143.701C95.5636 144.717 93.2328 143.497 90.6993 144.514C88.1658 145.632 88.1658 150.105 84.3149 151.731L85.9364 155.594L179.27 116.154" fill="#DDDDE1"/>
<path d="M165.386 83.1174C165.386 83.1174 166.805 93.8923 162.752 95.6203C159.103 97.1451 154.239 91.3511 150.084 93.1808C145.828 94.9088 149.172 110.258 145.119 111.986C141.065 113.714 136.201 107.412 132.654 108.936C129.107 110.461 131.235 118.288 127.688 119.813C124.749 121.033 120.493 114.832 117.048 113.409C116.338 113.104 115.629 113.002 115.021 113.307C111.474 114.832 113.197 131.198 110.156 132.519C109.143 132.926 108.231 133.027 107.42 132.926C106.204 132.824 105.089 132.519 103.975 132.621C103.569 132.621 103.164 132.722 102.657 132.926C100.023 134.044 100.428 142.684 97.9957 143.701C95.5636 144.717 93.2328 143.497 90.6993 144.514C88.1658 145.632 88.1658 150.105 84.3149 151.731L85.9364 155.594L179.27 116.154" stroke="#273259" stroke-miterlimit="10"/>
<path d="M171.467 97.5518C171.467 97.5518 172.277 102.736 170.251 103.651C168.528 104.362 167.514 103.346 165.69 103.346C164.981 103.346 164.17 103.447 163.056 103.854C161.434 104.566 161.029 106.802 160.725 109.14C160.319 112.088 160.218 115.34 157.989 116.255C156.468 116.865 154.847 116.56 153.124 115.95C150.489 115.036 147.652 113.511 144.916 114.629C143.598 115.137 142.686 116.662 141.977 118.39C140.254 122.558 139.747 128.657 137.923 129.47C135.289 130.588 130.526 126.115 128.195 127.03C125.864 128.047 126.877 132.011 124.952 132.824C123.027 133.637 122.013 131.299 118.669 132.723C115.325 134.146 116.946 139.025 112.285 140.956C107.623 142.888 105.596 139.33 101.036 141.159C96.5769 143.091 97.3877 146.445 94.1448 147.868C91.0033 149.19 89.5845 146.852 87.3551 147.868C85.1256 148.783 84.5176 152.443 84.5176 152.646L85.7336 155.594L179.067 116.154" fill="#58A1CC"/>
<path d="M171.467 97.5518C171.467 97.5518 172.277 102.736 170.251 103.651C168.528 104.362 167.514 103.346 165.69 103.346C164.981 103.346 164.17 103.447 163.056 103.854C161.434 104.566 161.029 106.802 160.725 109.14C160.319 112.088 160.218 115.34 157.989 116.255C156.468 116.865 154.847 116.56 153.124 115.95C150.489 115.036 147.652 113.511 144.916 114.629C143.598 115.137 142.686 116.662 141.977 118.39C140.254 122.558 139.747 128.657 137.923 129.47C135.289 130.588 130.526 126.115 128.195 127.03C125.864 128.047 126.877 132.011 124.952 132.824C123.027 133.637 122.013 131.299 118.669 132.723C115.325 134.146 116.946 139.025 112.285 140.956C107.623 142.888 105.596 139.33 101.036 141.159C96.5769 143.091 97.3877 146.445 94.1448 147.868C91.0033 149.19 89.5845 146.852 87.3551 147.868C85.1256 148.783 84.5176 152.443 84.5176 152.646L85.7336 155.594L179.067 116.154" stroke="#273259" stroke-miterlimit="10"/>
<path d="M66.9858 110.563L85.9363 155.594L183.627 114.324" stroke="#273259" stroke-miterlimit="10" stroke-linecap="round" stroke-linejoin="round"/>
<path d="M152.82 132.519L120.392 146.242C119.784 146.547 119.48 147.157 119.784 147.767C120.088 148.376 120.696 148.681 121.304 148.376L153.732 134.654C154.341 134.349 154.645 133.739 154.341 133.129C154.138 132.519 153.428 132.214 152.82 132.519Z" fill="#273259"/>
<path d="M179.067 79.6614L175.925 80.9829C175.621 81.0845 175.216 80.9829 175.115 80.6779L173.797 77.5268C173.696 77.2218 173.797 76.8152 174.101 76.7136L177.243 75.3921C177.547 75.2905 177.952 75.3921 178.054 75.6971L179.371 78.8482C179.472 79.1532 179.371 79.5598 179.067 79.6614Z" fill="#DDDDE1" stroke="#273259" stroke-miterlimit="10"/>
<path d="M194.167 70.0046L181.195 75.4937C180.891 75.5953 180.587 75.4936 180.486 75.1887C180.384 74.8837 180.486 74.5788 180.79 74.4772L193.761 68.9881C194.065 68.8864 194.369 68.9881 194.471 69.293C194.572 69.598 194.471 69.9029 194.167 70.0046Z" fill="#273259"/>
<path d="M191.126 73.8674L182.107 77.6284C181.803 77.73 181.499 77.6284 181.398 77.3235C181.297 77.0185 181.398 76.7135 181.702 76.6119L190.721 72.8509C191.025 72.7492 191.329 72.8509 191.43 73.1558C191.532 73.4608 191.43 73.7657 191.126 73.8674Z" fill="#273259"/>
<path d="M183.121 89.3181L179.979 90.6396C179.675 90.7412 179.27 90.6396 179.168 90.3346L177.851 87.1835C177.75 86.8786 177.851 86.472 178.155 86.3703L181.297 85.0489C181.601 84.9472 182.006 85.0489 182.107 85.3538L183.425 88.505C183.627 88.8099 183.425 89.2165 183.121 89.3181Z" fill="#58A1CC" stroke="#273259" stroke-miterlimit="10"/>
<path d="M198.22 79.6613L185.249 85.1504C184.945 85.252 184.641 85.1504 184.539 84.8454C184.438 84.5405 184.539 84.2355 184.843 84.1339L197.815 78.6448C198.119 78.5432 198.423 78.6448 198.524 78.9498C198.626 79.2547 198.524 79.5597 198.22 79.6613Z" fill="#273259"/>
<path d="M195.18 83.5241L186.161 87.2851C185.857 87.3868 185.553 87.2851 185.452 86.9802C185.35 86.6752 185.452 86.3703 185.756 86.2686L194.775 82.5076C195.079 82.406 195.383 82.5076 195.484 82.8125C195.585 83.1175 195.484 83.4224 195.18 83.5241Z" fill="#273259"/>
</g>
<mask id="mask16_452_975" style="mask-type:luminance" maskUnits="userSpaceOnUse" x="38" y="17" width="239" height="274">
<path d="M276.961 227.46L140.659 284.994L126.573 290.889L100.022 227.765L38.5093 81.1861L188.998 17.655L276.961 227.46Z" fill="white"/>
</mask>
<g mask="url(#mask16_452_975)">
<path opacity="0.2" d="M140.659 284.994L126.573 290.889L100.124 227.765C101.745 226.138 103.772 223.496 104.582 219.023C106.204 210.586 105.089 183.344 126.168 180.599C147.246 177.753 129.512 225.427 130.424 234.474C131.235 242.809 143.294 266.798 140.659 284.994Z" fill="#7382A3"/>
</g>
<path d="M276.961 227.46L140.659 284.994L126.573 290.889L100.022 227.765L38.5093 81.1861L188.998 17.655L276.961 227.46Z" stroke="#273259" stroke-miterlimit="10" stroke-linecap="round" stroke-linejoin="round"/>
<path d="M132.147 237.93C134.477 229.798 143.801 203.776 142.585 192.289C142.483 191.273 142.281 190.358 141.976 189.443C138.734 180.803 125.458 181.718 120.391 188.833C114.818 196.66 110.257 210.789 109.852 219.328C109.649 224.106 107.622 228.477 105.798 231.424C104.38 233.762 103.164 235.287 103.164 235.287L72.9644 163.319C72.9644 163.319 68.1001 167.283 65.06 172.163C63.8439 174.094 62.9318 176.229 62.7292 178.363C62.1211 185.479 54.1153 214.551 50.7711 226.85C50.6698 227.155 50.6698 227.358 50.5684 227.562C47.3256 239.353 55.8381 283.266 53.4059 295.972C50.9738 308.678 49.4537 308.475 49.1497 317.522C48.8457 324.129 39.4211 344.256 28.8818 364.89C22.8015 376.682 16.4171 388.676 11.1475 398.435L88.4693 395.182C89.7868 385.729 91.2055 375.767 92.4216 366.212C92.9283 362.248 93.739 358.182 94.7524 354.319C96.4751 347.407 98.5019 341.104 99.8193 337.445C101.846 331.753 103.873 321.079 103.873 321.079C112.892 311.524 124.647 296.48 128.093 286.315C128.093 286.315 128.093 286.315 128.093 286.214C129.005 283.672 129.309 281.436 128.904 279.606C128.6 278.183 128.397 276.252 128.296 274.016C127.586 263.037 130.12 244.74 132.147 237.93Z" fill="white"/>
<path opacity="0.4" d="M56.6486 275.642C56.8513 276.252 61.2088 290.788 57.5606 296.887C53.8111 303.087 50.0615 311.016 51.8856 319.25C53.3044 325.857 41.1437 349.643 28.7803 364.89C39.3196 344.255 48.7441 324.129 49.0481 317.522C49.3522 308.475 50.8722 308.78 53.3044 295.972C55.7365 283.266 47.224 239.353 50.4669 227.562C50.5682 227.358 50.5682 227.053 50.6696 226.85C53.0004 240.268 58.574 266.9 59.9928 275.439C61.9182 286.417 56.8513 276.049 56.6486 275.642Z" fill="#58A1CC"/>
<path opacity="0.4" d="M84.5171 363.467C93.5363 324.637 123.735 294.854 127.89 286.315C124.445 296.48 112.689 311.524 103.67 321.079C103.67 321.079 101.643 331.753 99.6166 337.445C98.4006 341.104 96.2724 347.407 94.5497 354.319C85.7332 364.585 84.5171 363.467 84.5171 363.467Z" fill="#58A1CC"/>
<path opacity="0.4" d="M132.147 237.93C130.12 244.741 127.688 263.037 128.093 274.016C126.472 267.103 123.431 258.362 122.925 246.062C122.114 225.325 133.768 232.746 129.714 222.581C125.661 212.416 114.007 225.427 119.682 203.877C123.837 188.122 135.795 188.223 141.875 189.443C142.179 190.256 142.382 191.171 142.483 192.289C143.699 203.776 134.477 229.798 132.147 237.93Z" fill="#58A1CC"/>
<path d="M22.7002 376.987C32.4288 359.198 41.8533 340.901 48.6431 321.181C49.4538 318.335 48.339 314.675 49.1497 311.829C58.3716 286.214 47.9337 259.581 49.6564 233.356C51.0752 222.987 54.4194 212.619 57.6622 202.149C59.1823 194.627 59.7904 186.19 62.3239 178.567C64.8573 172.874 67.3908 166.165 72.8631 163.319C83.1997 187.105 93.5363 210.993 103.062 235.287C107.42 232.746 108.129 227.155 108.839 222.479C111.169 211.196 113.5 200.828 117.756 191.273C122.114 183.649 133.16 180.396 139.95 186.597C141.875 188.427 142.889 191.171 143.091 193.916C141.774 207.028 137.619 220.345 133.565 232.644C131.944 238.337 130.221 243.012 129.613 248.705C129.714 250.535 129.714 251.551 129.816 253.381C127.384 262.834 129.613 271.169 129.106 280.521C126.978 297.395 113.5 309.186 103.772 321.791C101.339 331.244 99.0087 340.698 95.6645 350.151C91.6109 364.382 90.2935 378.41 88.8747 392.031" stroke="#273259" stroke-miterlimit="10" stroke-linecap="round" stroke-linejoin="round"/>
<path d="M103.062 235.287C103.062 235.287 99.9205 241.386 98.6031 246.367C97.2857 251.348 90.9013 250.636 87.5571 253.686" stroke="#273259" stroke-miterlimit="10" stroke-linecap="round" stroke-linejoin="round"/>
<path d="M78.8423 226.545C78.8423 226.545 87.5575 229.595 92.6244 233.559C97.6914 237.523 101.441 238.54 101.441 238.54" stroke="#273259" stroke-miterlimit="10" stroke-linecap="round" stroke-linejoin="round"/>
<path d="M73.2686 204.792C73.2686 204.792 80.261 206.724 85.5306 204.284C85.5306 204.284 85.936 199.913 86.848 196.762" stroke="#273259" stroke-miterlimit="10" stroke-linecap="round" stroke-linejoin="round"/>
<path d="M87.1519 205.3C87.1519 205.3 87.2532 206.317 90.8001 206.317" stroke="#273259" stroke-miterlimit="10" stroke-linecap="round" stroke-linejoin="round"/>
<path d="M103.67 321.079C103.67 321.079 96.7794 327.28 92.6245 338.563" stroke="#273259" stroke-miterlimit="10" stroke-linecap="round" stroke-linejoin="round"/>
<path d="M49.9607 229.798C49.6566 235.897 56.7504 257.548 58.9799 268.323C61.108 279.098 61.9187 286.722 61.9187 286.722" stroke="#273259" stroke-miterlimit="10" stroke-linecap="round" stroke-linejoin="round"/>
</g>
<defs>
<clipPath id="clip0_452_975">
<rect width="454" height="419" fill="white" transform="translate(0 0.272949)"/>
</clipPath>
</defs>
</svg>
