<svg width="44" height="44" id="company_upload" viewBox="0 0 44 44" fill="none" xmlns="http://www.w3.org/2000/svg">
<path d="M34.551 12.8754C33.2768 6.52842 27.6192 1.83325 21.0833 1.83325C13.5007 1.83325 7.33333 8.00058 7.33333 15.5833C7.33333 15.8931 7.34617 16.2103 7.37367 16.5458C5.34984 16.7648 3.4781 17.7232 2.11736 19.2372C0.75661 20.7512 0.0026327 22.7143 0 24.7499C0 29.2984 3.7015 32.9999 8.25 32.9999C8.49312 32.9999 8.72627 32.9033 8.89818 32.7314C9.07009 32.5595 9.16667 32.3264 9.16667 32.0833C9.16667 25.5126 14.5127 20.1666 21.0833 20.1666C27.654 20.1666 33 25.5126 33 32.0833C33 32.3264 33.0966 32.5595 33.2685 32.7314C33.4404 32.9033 33.6736 32.9999 33.9167 32.9999C39.4772 32.9999 44 28.4771 44 22.9166C44 17.6164 39.8897 13.2586 34.551 12.8754ZM21.0833 21.9999C15.5228 21.9999 11 26.5228 11 32.0833C11 37.6437 15.5228 42.1666 21.0833 42.1666C26.6438 42.1666 31.1667 37.6437 31.1667 32.0833C31.1667 26.5228 26.6438 21.9999 21.0833 21.9999ZM25.399 30.8989C25.2266 31.0704 24.9932 31.1667 24.75 31.1667C24.5068 31.1667 24.2735 31.0704 24.101 30.8989L22 28.7961V37.5833C22 37.8264 21.9034 38.0595 21.7315 38.2314C21.5596 38.4033 21.3264 38.4999 21.0833 38.4999C20.8402 38.4999 20.6071 38.4033 20.4352 38.2314C20.2632 38.0595 20.1667 37.8264 20.1667 37.5833V28.7961L18.0657 30.8971C17.8928 31.0641 17.6612 31.1565 17.4209 31.1544C17.1805 31.1523 16.9506 31.0559 16.7807 30.8859C16.6107 30.716 16.5143 30.486 16.5122 30.2457C16.5101 30.0054 16.6025 29.7738 16.7695 29.6009L20.4343 25.9361C20.519 25.8498 20.62 25.7813 20.7314 25.7345C20.8428 25.6878 20.9625 25.6637 21.0833 25.6637C21.2042 25.6637 21.3238 25.6878 21.4353 25.7345C21.5467 25.7813 21.6477 25.8498 21.7323 25.9361L25.3972 29.6009C25.4827 29.6859 25.5505 29.787 25.5969 29.8983C25.6433 30.0096 25.6672 30.129 25.6674 30.2495C25.6676 30.3701 25.6439 30.4895 25.5979 30.601C25.5518 30.7124 25.4842 30.8136 25.399 30.8989Z" fill="#58A1CC"/>
</svg>
