<svg width="24px" height="24px" id="dolar-circle" viewBox="0 0 24 24" fill="none" xmlns="http://www.w3.org/2000/svg">
  <g transform="matrix(0.667369, 0, 0, 0.667369, 0.448508, 0.514245)">
    <path d="M 17.309 31.421 C 25.171 31.421 31.544 25.059 31.544 17.211 C 31.544 9.362 25.171 3 17.309 3 C 9.447 3 3.074 9.362 3.074 17.211 C 3.074 25.059 9.447 31.421 17.309 31.421 Z" stroke="currentColor" stroke-width="2.5" stroke-linecap="round" stroke-linejoin="round"/>
    <path d="M22.6091 12.75C21.5799 11.7225 19.7678 11.0085 18.1014 10.9635M18.1014 10.9635C16.1181 10.9095 14.345 11.805 14.345 14.25C14.345 18.75 22.6091 16.5 22.6091 21C22.6091 23.5665 20.4094 24.669 18.1014 24.5865M18.1014 10.9635V8.25M13.5938 22.5C14.5614 23.79 16.363 24.525 18.1014 24.5865M18.1014 24.5865V27.75" stroke="currentColor" stroke-width="2.5" stroke-linecap="round" stroke-linejoin="round"/>
  </g>
</svg>