<?xml version="1.0" encoding="utf-8"?>
<svg width="24px" height="24px" id="drag-8" viewBox="0 0 24 24" fill="none" xmlns="http://www.w3.org/2000/svg">
  <g transform="matrix(1.200084, 0, 0, 1.200084, -0.00035, 1.99997)" style="transform-origin: 0.00035px 10px;">
    <path d="M6.66667 5.00008C7.58714 5.00008 8.33333 4.25389 8.33333 3.33341C8.33333 2.41294 7.58714 1.66675 6.66667 1.66675C5.74619 1.66675 5 2.41294 5 3.33341C5 4.25389 5.74619 5.00008 6.66667 5.00008Z" fill="currentColor"/>
    <path d="M6.66667 11.6666C7.58714 11.6666 8.33333 10.9204 8.33333 9.99992C8.33333 9.07944 7.58714 8.33325 6.66667 8.33325C5.74619 8.33325 5 9.07944 5 9.99992C5 10.9204 5.74619 11.6666 6.66667 11.6666Z" fill="currentColor"/>
    <path d="M6.66667 18.3333C7.58714 18.3333 8.33333 17.5871 8.33333 16.6667C8.33333 15.7462 7.58714 15 6.66667 15C5.74619 15 5 15.7462 5 16.6667C5 17.5871 5.74619 18.3333 6.66667 18.3333Z" fill="currentColor"/>
    <path d="M13.3327 5.00008C14.2532 5.00008 14.9993 4.25389 14.9993 3.33341C14.9993 2.41294 14.2532 1.66675 13.3327 1.66675C12.4122 1.66675 11.666 2.41294 11.666 3.33341C11.666 4.25389 12.4122 5.00008 13.3327 5.00008Z" fill="currentColor"/>
    <path d="M13.3327 11.6666C14.2532 11.6666 14.9993 10.9204 14.9993 9.99992C14.9993 9.07944 14.2532 8.33325 13.3327 8.33325C12.4122 8.33325 11.666 9.07944 11.666 9.99992C11.666 10.9204 12.4122 11.6666 13.3327 11.6666Z" fill="currentColor"/>
    <path d="M13.3327 18.3333C14.2532 18.3333 14.9993 17.5871 14.9993 16.6667C14.9993 15.7462 14.2532 15 13.3327 15C12.4122 15 11.666 15.7462 11.666 16.6667C11.666 17.5871 12.4122 18.3333 13.3327 18.3333Z" fill="currentColor"/>
  </g>
</svg>