<svg width="24px" height="24px" id="grid-view" viewBox="0 0 24 24" fill="none" xmlns="http://www.w3.org/2000/svg">    
    <path d="M 5.583 10.167 L 7.417 10.167 C 9.25 10.167 10.167 9.25 10.167 7.417 L 10.167 5.583 C 10.167 3.75 9.25 2.833 7.417 2.833 L 5.583 2.833 C 3.75 2.833 2.833 3.75 2.833 5.583 L 2.833 7.417 C 2.833 9.25 3.75 10.167 5.583 10.167 Z" stroke="currentColor" stroke-width="1.5" stroke-miterlimit="10" stroke-linecap="round" stroke-linejoin="round"></path>
    <path d="M 16.583 10.167 L 18.417 10.167 C 20.25 10.167 21.167 9.25 21.167 7.417 L 21.167 5.583 C 21.167 3.75 20.25 2.833 18.417 2.833 L 16.583 2.833 C 14.75 2.833 13.833 3.75 13.833 5.583 L 13.833 7.417 C 13.833 9.25 14.75 10.167 16.583 10.167 Z" stroke="currentColor" stroke-width="1.5" stroke-miterlimit="10" stroke-linecap="round" stroke-linejoin="round"></path>
    <path d="M 16.583 21.167 L 18.417 21.167 C 20.25 21.167 21.167 20.25 21.167 18.417 L 21.167 16.583 C 21.167 14.75 20.25 13.833 18.417 13.833 L 16.583 13.833 C 14.75 13.833 13.833 14.75 13.833 16.583 L 13.833 18.417 C 13.833 20.25 14.75 21.167 16.583 21.167 Z" stroke="currentColor" stroke-width="1.5" stroke-miterlimit="10" stroke-linecap="round" stroke-linejoin="round"></path>
    <path d="M 5.583 21.167 L 7.417 21.167 C 9.25 21.167 10.167 20.25 10.167 18.417 L 10.167 16.583 C 10.167 14.75 9.25 13.833 7.417 13.833 L 5.583 13.833 C 3.75 13.833 2.833 14.75 2.833 16.583 L 2.833 18.417 C 2.833 20.25 3.75 21.167 5.583 21.167 Z" stroke="currentColor" stroke-width="1.5" stroke-miterlimit="10" stroke-linecap="round" stroke-linejoin="round"></path>
</svg>