<?xml version="1.0" encoding="utf-8"?>
<svg width="24px" height="24px" id="money-send-1" viewBox="0 0 24 24" fill="none" xmlns="http://www.w3.org/2000/svg">
  <path d="M 9.708 13.604 C 9.708 14.493 10.395 15.208 11.239 15.208 L 12.962 15.208 C 13.695 15.208 14.291 14.585 14.291 13.806 C 14.291 12.972 13.924 12.669 13.384 12.477 L 10.624 11.514 C 10.084 11.322 9.717 11.028 9.717 10.185 C 9.717 9.415 10.313 8.783 11.046 8.783 L 12.769 8.783 C 13.613 8.783 14.3 9.498 14.3 10.387" stroke="currentColor" stroke-width="1.5" stroke-linecap="round" stroke-linejoin="round"/>
  <path d="M11.9961 6.875V15.125" stroke="currentColor" stroke-width="1.5" stroke-linecap="round" stroke-linejoin="round"/>
  <path d="M 21.166 12 C 21.166 17.06 17.059 21.167 11.999 21.167 C 6.939 21.167 2.833 17.06 2.833 12 C 2.833 6.94 6.939 2.833 11.999 2.833" stroke="currentColor" stroke-width="1.5" stroke-linecap="round" stroke-linejoin="round"/>
  <path d="M 21.167 6.5 L 21.167 2.833 L 17.501 2.833" stroke="currentColor" stroke-width="1.5" stroke-linecap="round" stroke-linejoin="round"/>
  <path d="M 16.583 7.417 L 21.166 2.833" stroke="currentColor" stroke-width="1.5" stroke-linecap="round" stroke-linejoin="round"/>
</svg>