<svg width="24" height="24" id="money-off" viewBox="0 0 24 24" fill="none" xmlns="http://www.w3.org/2000/svg">
  <g transform="matrix(0.6, 0, 0, 0.6, 1.199995, 1.199995)">
    <path d="M6.93452 7.872C4.39887 10.6349 2.99448 14.25 3.00002 18C3.00002 26.2845 9.71552 33 18 33C21.6548 33.0055 25.1849 31.6714 27.9225 29.25M31.953 23.517C32.6471 21.7606 33.0024 19.8886 33 18C33 9.7155 26.2845 3 18 3C16.1535 3 14.385 3.3345 12.75 3.945" stroke="currentColor" stroke-width="2.5" stroke-linecap="round" stroke-linejoin="round"/>
    <path d="M13.5 22.5C14.466 23.79 16.2645 24.525 18 24.5865M18 24.5865C19.671 24.6465 21.285 24.0825 22.0455 22.7895M18 24.5865V27.75M14.25 14.25C14.25 16.0215 15.528 16.7475 17.079 17.25M22.5 12.75C21.4725 11.7225 19.6635 11.0085 18 10.9635V8.25M4.5 4.5L31.5 31.5" stroke="currentColor" stroke-width="2.5" stroke-linecap="round" stroke-linejoin="round"/>
  </g>
</svg>