<?xml version="1.0" encoding="utf-8"?>
<svg width="24" height="24" id="notification-bing" viewBox="0 0 24 24" fill="none" xmlns="http://www.w3.org/2000/svg">
  <g transform="matrix(0.852301, -0.000001, 0.000001, 0.923357, -11.542663, -11.60885)" style="transform-origin: 23.5427px 23.6088px;">
    <path d="M23.5391 22.059C23.1291 22.059 22.7891 21.719 22.7891 21.309V17.979C22.7891 17.569 23.1291 17.229 23.5391 17.229C23.9491 17.229 24.2891 17.569 24.2891 17.979V21.309C24.2891 21.729 23.9491 22.059 23.5391 22.059Z" fill="currentColor"/>
    <path d="M23.5599 31.8888C20.9799 31.8888 18.4099 31.4788 15.9599 30.6588C15.0499 30.3588 14.3599 29.7088 14.0599 28.8888C13.7599 28.0688 13.8599 27.1288 14.3499 26.3088L15.6199 24.1888C15.8999 23.7188 16.1499 22.8388 16.1499 22.2888V20.1888C16.1499 16.0988 19.4699 12.7788 23.5599 12.7788C27.6499 12.7788 30.9699 16.0988 30.9699 20.1888V22.2888C30.9699 22.8288 31.2199 23.7188 31.4999 24.1888L32.7699 26.3088C33.2399 27.0888 33.3199 28.0188 33.0099 28.8688C32.6999 29.7188 32.0199 30.3688 31.1599 30.6588C28.7099 31.4888 26.1399 31.8888 23.5599 31.8888ZM23.5599 14.2888C20.2999 14.2888 17.6499 16.9388 17.6499 20.1988V22.2988C17.6499 23.1088 17.3299 24.2788 16.9099 24.9688L15.6399 27.0988C15.3799 27.5288 15.3199 27.9888 15.4699 28.3888C15.6199 28.7888 15.9599 29.0888 16.4399 29.2488C21.0399 30.7788 26.0999 30.7788 30.6999 29.2488C31.1299 29.1088 31.4599 28.7888 31.6099 28.3688C31.7699 27.9488 31.7199 27.4888 31.4899 27.0988L30.2199 24.9788C29.7999 24.2888 29.4799 23.1188 29.4799 22.3088V20.2088C29.4699 16.9388 26.8199 14.2888 23.5599 14.2888Z" fill="currentColor"/>
    <path d="M23.539 34.4389C22.469 34.4389 21.419 33.9989 20.659 33.2389C19.899 32.4789 19.459 31.4289 19.459 30.3589H20.959C20.959 31.0389 21.239 31.6989 21.719 32.1789C22.199 32.6589 22.859 32.9389 23.539 32.9389C24.959 32.9389 26.119 31.7789 26.119 30.3589H27.619C27.619 32.6089 25.789 34.4389 23.539 34.4389Z" fill="currentColor"/>
  </g>
</svg>