<svg width="24px" height="24px" id="receipt" viewBox="0 0 24 24" fill="none" xmlns="http://www.w3.org/2000/svg">
  <g transform="matrix(1.091546, 0, 0, 1.091546, -0.000623, -0.00818)">
    <path d="M6.16786 18.0583C6.91953 17.2516 8.06537 17.3158 8.72537 18.1958L9.6512 19.4333C10.3937 20.4141 11.5945 20.4141 12.337 19.4333L13.2629 18.1958C13.9229 17.3158 15.0687 17.2516 15.8204 18.0583C17.452 19.7999 18.7812 19.2224 18.7812 16.7841V6.45325C18.7904 2.75909 17.9287 1.83325 14.4637 1.83325H7.5337C4.0687 1.83325 3.20703 2.75909 3.20703 6.45325V16.7749C3.20703 19.2224 4.54536 19.7908 6.16786 18.0583Z" stroke="currentColor" stroke-width="1.5" stroke-linecap="round" stroke-linejoin="round"/>
    <path d="M7.33203 6.41675H14.6654" stroke="currentColor" stroke-width="1.5" stroke-linecap="round" stroke-linejoin="round"/>
    <path d="M8.25 10.0833H13.75" stroke="currentColor" stroke-width="1.5" stroke-linecap="round" stroke-linejoin="round"/>
  </g>
</svg>