<svg width="24px" height="24px" id="scan-delete" viewBox="0 0 24 24" fill="none" xmlns="http://www.w3.org/2000/svg">
  <g transform="matrix(0.937502, 0, 0, 0.937502, 1.062491, -0.133518)">
    <path d="M9.66667 21.609H3.66667C2.86667 21.609 2.33333 21.0757 2.33333 20.2757V5.60905C2.33333 4.80905 2.86667 4.27572 3.66667 4.27572H15.6667C16.4667 4.27572 17 4.80905 17 5.60905V8.94238C17 9.34238 17.2667 9.60905 17.6667 9.60905C18.0667 9.60905 18.3333 9.34238 18.3333 8.94238V5.60905C18.3333 4.14238 17.1333 2.94238 15.6667 2.94238H3.66667C2.2 2.94238 1 4.14238 1 5.60905V20.2757C1 21.7424 2.2 22.9424 3.66667 22.9424H9.66667C10.0667 22.9424 10.3333 22.6757 10.3333 22.2757C10.3333 21.8757 10.0667 21.609 9.66667 21.609Z" fill="currentColor"/>
    <path d="M14.3333 8.94206C14.3333 8.54206 14.0667 8.27539 13.6667 8.27539H5.66667C5.26667 8.27539 5 8.54206 5 8.94206C5 9.34206 5.26667 9.60872 5.66667 9.60872H13.6667C14.0667 9.60872 14.3333 9.34206 14.3333 8.94206ZM5.66667 12.2754C5.26667 12.2754 5 12.5421 5 12.9421C5 13.3421 5.26667 13.6087 5.66667 13.6087H9.66667C10.0667 13.6087 10.3333 13.3421 10.3333 12.9421C10.3333 12.5421 10.0667 12.2754 9.66667 12.2754H5.66667ZM16.3333 10.9421C13 10.9421 10.3333 13.6087 10.3333 16.9421C10.3333 20.2754 13 22.9421 16.3333 22.9421C19.6667 22.9421 22.3333 20.2754 22.3333 16.9421C22.3333 13.6087 19.6667 10.9421 16.3333 10.9421ZM16.3333 21.6087C13.8 21.6087 11.6667 19.4754 11.6667 16.9421C11.6667 14.4087 13.8 12.2754 16.3333 12.2754C18.8667 12.2754 21 14.4087 21 16.9421C21 19.4754 18.8667 21.6087 16.3333 21.6087Z" fill="currentColor"/>
    <path d="M18.7344 14.6756C18.4677 14.4089 18.0677 14.4089 17.801 14.6756L16.3344 16.1423L14.8677 14.6756C14.601 14.4089 14.201 14.4089 13.9344 14.6756C13.6677 14.9423 13.6677 15.3423 13.9344 15.6089L15.401 17.0756L13.9344 18.5423C13.6677 18.8089 13.6677 19.2089 13.9344 19.4756C14.201 19.7423 14.601 19.7423 14.8677 19.4756L16.3344 18.0089L17.801 19.4756C18.0677 19.7423 18.4677 19.7423 18.7344 19.4756C19.001 19.2089 19.001 18.8089 18.7344 18.5423L17.2677 17.0756L18.7344 15.6089C19.001 15.3423 19.001 14.9423 18.7344 14.6756Z" fill="currentColor"/>
  </g>
</svg>