<svg width="24px" height="24px" id="shuffle" viewBox="0 0 24 24" fill="none" xmlns="http://www.w3.org/2000/svg">
        <defs></defs>
        <path d="M 4.205 17.491 L 6.543 17.5 C 7.377 17.5 8.156 17.087 8.614 16.4 L 14.472 7.618 C 14.93 6.931 15.709 6.509 16.543 6.518 L 20.714 6.537" stroke="currentColor" stroke-width="1.5" stroke-linecap="round" stroke-linejoin="round"></path>
        <path d="M 18.873 19.324 L 20.706 17.491" stroke="currentColor" stroke-width="1.5" stroke-linecap="round" stroke-linejoin="round"></path>
        <path d="M 19.795 17.482 L 17.457 17.491 C 16.623 17.491 15.844 17.078 15.386 16.391 L 9.528 7.609 C 9.07 6.922 8.291 6.5 7.457 6.509 L 3.286 6.528" stroke="currentColor" stroke-width="1.5" stroke-linecap="round" stroke-linejoin="round"></path>
        <path d="M 3.29 6.491 L 5.123 8.324" stroke="currentColor" stroke-width="1.5" stroke-linecap="round" stroke-linejoin="round"></path>
        <path d="M 3.29 17.491 L 5.123 19.324" stroke="currentColor" stroke-width="1.5" stroke-linecap="round" stroke-linejoin="round"></path>
        <path d="M 20.706 17.509 L 18.873 15.676" stroke="currentColor" stroke-width="1.5" stroke-linecap="round" stroke-linejoin="round"></path>
        <path d="M 18.873 8.342 L 20.706 6.509" stroke="currentColor" stroke-width="1.5" stroke-linecap="round" stroke-linejoin="round"></path>
        <path d="M 5.123 4.676 L 3.29 6.509" stroke="currentColor" stroke-width="1.5" stroke-linecap="round" stroke-linejoin="round"></path>
        <path d="M 5.123 15.676 L 3.29 17.509" stroke="currentColor" stroke-width="1.5" stroke-linecap="round" stroke-linejoin="round"></path>
        <path d="M 20.706 6.528 L 18.873 4.694" stroke="currentColor" stroke-width="1.5" stroke-linecap="round" stroke-linejoin="round"></path>
      </svg>