
<svg xmlns="http://www.w3.org/2000/svg" xmlns:xlink="http://www.w3.org/1999/xlink" width="24px" height="24px" viewBox="0 0 24 24" id="trash" version="1.1">
<g id="surface1">
<path style="fill:none;stroke-width:1.5;stroke-linecap:round;stroke-linejoin:round;stroke:currentcolor;stroke-opacity:1;stroke-miterlimit:4;" d="M 19.25 5.682617 C 16.199219 5.378255 13.126953 5.224284 10.06543 5.224284 C 8.25 5.224284 6.43457 5.313802 4.619141 5.496419 L 2.75 5.682617 " transform="matrix(1.090909,0,0,1.090909,0,0)"/>
<path style="fill:none;stroke-width:1.5;stroke-linecap:round;stroke-linejoin:round;stroke:currentcolor;stroke-opacity:1;stroke-miterlimit:4;" d="M 7.788086 4.755208 L 7.992188 3.555664 C 8.138997 2.681966 8.246419 2.033854 9.796875 2.033854 L 12.199544 2.033854 C 13.746419 2.033854 13.868164 2.721354 14.004232 3.562826 L 14.204753 4.755208 " transform="matrix(1.090909,0,0,1.090909,0,0)"/>
<path style="fill:none;stroke-width:1.5;stroke-linecap:round;stroke-linejoin:round;stroke:currentcolor;stroke-opacity:1;stroke-miterlimit:4;" d="M 17.277018 8.579427 L 16.682617 17.810547 C 16.578776 19.246419 16.496419 20.367188 13.939779 20.367188 L 8.056641 20.367188 C 5.496419 20.367188 5.414062 19.246419 5.313802 17.810547 L 4.719401 8.579427 " transform="matrix(1.090909,0,0,1.090909,0,0)"/>
<path style="fill:none;stroke-width:1.5;stroke-linecap:round;stroke-linejoin:round;stroke:currentcolor;stroke-opacity:1;stroke-miterlimit:4;" d="M 9.467448 15.325521 L 12.52181 15.325521 " transform="matrix(1.090909,0,0,1.090909,0,0)"/>
<path style="fill:none;stroke-width:1.5;stroke-linecap:round;stroke-linejoin:round;stroke:currentcolor;stroke-opacity:1;stroke-miterlimit:4;" d="M 8.711914 11.658854 L 13.295247 11.658854 " transform="matrix(1.090909,0,0,1.090909,0,0)"/>
</g>
</svg>
